<?xml version="1.0" encoding="UTF-8" standalone="no"?>
<!-- Created with Inkscape (http://www.inkscape.org/) -->

<svg
   version="1.1"
   id="svg2"
   xml:space="preserve"
   width="815.91998"
   height="534.64001"
   viewBox="0 0 815.91998 534.64001"
   sodipodi:docname="8961448_3973480.eps"
   xmlns:inkscape="http://www.inkscape.org/namespaces/inkscape"
   xmlns:sodipodi="http://sodipodi.sourceforge.net/DTD/sodipodi-0.dtd"
   xmlns="http://www.w3.org/2000/svg"
   xmlns:svg="http://www.w3.org/2000/svg"><defs
     id="defs6" /><sodipodi:namedview
     id="namedview4"
     pagecolor="#ffffff"
     bordercolor="#666666"
     borderopacity="1.0"
     inkscape:pageshadow="2"
     inkscape:pageopacity="0.0"
     inkscape:pagecheckerboard="0" /><g
     id="g8"
     inkscape:groupmode="layer"
     inkscape:label="ink_ext_XXXXXX"
     transform="matrix(1.3333333,0,0,-1.3333333,0,534.64)"><g
       id="g10"
       transform="scale(0.1)"><path
         d="m 6013.28,3064.39 -95.7,-463.44 -61.56,60.06 -104.83,-74.72 -80.07,99.41 -179.66,-130.6 -153.43,256.71 -171.24,-100.28 -67.87,93.63 -217.43,-122.5 -65.42,140.03 152.4,738.11 817.04,-168.69 227.77,-327.72"
         style="fill:#e7e8e5;fill-opacity:1;fill-rule:nonzero;stroke:none"
         id="path12" /><path
         d="m 5785.51,3392.1 227.79,-327.67 -283.36,58.5 z"
         style="fill:#d4d6d3;fill-opacity:1;fill-rule:nonzero;stroke:none"
         id="path14" /><path
         d="m 5897.23,2508.33 -140.37,-679.95 -1100.43,227.15 139.29,674.53 65.42,-140.03 217.41,122.5 67.88,-93.63 171.25,100.28 153.42,-256.71 179.66,130.61 80.08,-99.41 104.82,74.71 61.57,-60.05"
         style="fill:#e7e8e5;fill-opacity:1;fill-rule:nonzero;stroke:none"
         id="path16" /><path
         d="m 4322.13,2588.01 -1121.5,-69.41 -89.1,1439.67 832.72,51.53 305.77,-256.44 72.11,-1165.35"
         style="fill:#e7e8e5;fill-opacity:1;fill-rule:nonzero;stroke:none"
         id="path18" /><path
         d="m 3944.25,4009.8 305.77,-256.44 -288.79,-17.88 z"
         style="fill:#d4d6d3;fill-opacity:1;fill-rule:nonzero;stroke:none"
         id="path20" /><path
         d="m 3615.61,2864.02 c -2.6,46.41 26.92,80.78 70.82,83.24 43.89,2.46 75.83,-28.47 78.42,-74.88 2.46,-43.89 -24.48,-79.37 -70.89,-81.98 -43.9,-2.45 -75.89,29.73 -78.35,73.62 z m 17.75,177.15 -4.34,32.47 c -11.31,67.31 7.12,142.57 65.61,221.34 52.72,69.64 81.35,120.31 78.18,176.75 -3.58,63.97 -46.1,104.37 -125.2,101.2 -45.16,-2.53 -94.48,-20.39 -124.5,-45.98 l -34.54,77.33 c 39.72,32.42 110.08,56.5 176.57,60.22 144.24,8.08 214.44,-77.33 219.77,-172.64 4.79,-85.3 -39.43,-149.42 -95.63,-224.29 -51.54,-68.31 -68.51,-124.62 -61.16,-188.38 l 3.07,-32.55 -97.83,-5.47"
         style="fill:#d4d6d3;fill-opacity:1;fill-rule:nonzero;stroke:none"
         id="path22" /><path
         d="m 764.59,3171.9 c 32.644,-45.56 22.183,-108.92 -23.383,-141.56 -45.57,-32.66 -109.004,-22.24 -141.652,23.33 -32.653,45.56 -22.16,109.05 23.41,141.7 45.566,32.65 108.973,22.1 141.625,-23.47 z m 64.019,114.1 -112.855,51.18 -15.652,-34.56 c -4.606,-10.16 -14.575,-16.65 -25.723,-17.14 -6.16,-0.27 -12.316,-0.87 -18.445,-1.81 -11,-1.68 -22.016,2.76 -28.496,11.8 l -22.094,30.83 -100.774,-72.2 22.094,-30.83 c 6.481,-9.05 7.129,-20.9 2.004,-30.77 -2.855,-5.51 -5.406,-11.15 -7.645,-16.89 -4.05,-10.4 -13.394,-17.75 -24.496,-18.85 l -37.761,-3.7 12.172,-123.33 37.886,3.78 c 11.11,1.11 21.621,-4.42 27.653,-13.82 1.632,-2.55 3.347,-5.06 5.125,-7.55 1.777,-2.48 3.613,-4.91 5.5,-7.28 6.925,-8.68 8.781,-20.35 4.199,-30.48 l -15.766,-34.81 112.86,-51.18 15.714,34.63 c 4.614,10.16 14.598,16.63 25.75,17.11 6.133,0.26 12.27,0.86 18.371,1.78 10.993,1.66 21.997,-2.77 28.469,-11.8 l 22.102,-30.84 100.769,72.19 -22.097,30.85 c -6.477,9.03 -7.125,20.88 -2.02,30.75 2.84,5.48 5.371,11.1 7.594,16.83 4.039,10.4 13.383,17.77 24.488,18.87 l 37.84,3.74 -12.168,123.33 -37.859,-3.74 c -11.075,-1.09 -21.547,4.42 -27.559,13.79 -1.644,2.56 -3.371,5.1 -5.168,7.6 -1.777,2.48 -3.613,4.91 -5.504,7.29 -6.957,8.73 -8.816,20.46 -4.203,30.63 l 15.695,34.6"
         style="fill:#e7e8e5;fill-opacity:1;fill-rule:nonzero;stroke:none"
         id="path24" /><path
         d="m 5966.49,1567 c 39.28,0 71.09,-31.82 71.09,-71.08 0,-39.27 -31.81,-71.15 -71.09,-71.15 -39.26,0 -71.14,31.88 -71.14,71.15 0,39.26 31.88,71.08 71.14,71.08 z m -38.84,83.01 -75.2,-43.39 13.29,-23.02 c 3.92,-6.76 3.54,-15.08 -0.73,-21.64 -2.36,-3.61 -4.53,-7.37 -6.49,-11.24 -3.54,-6.95 -10.56,-11.41 -18.35,-11.41 h -26.58 v -86.85 h 26.58 c 7.79,0 14.81,-4.46 18.35,-11.42 1.96,-3.86 4.13,-7.62 6.49,-11.24 4.27,-6.55 4.65,-14.87 0.73,-21.64 l -13.29,-23.01 75.2,-43.38 13.3,23.11 c 3.9,6.78 11.34,10.51 19.16,10.11 2.12,-0.11 4.25,-0.17 6.38,-0.17 2.14,0 4.27,0.06 6.39,0.17 7.78,0.4 15.19,-3.31 19.07,-10.05 l 13.4,-23.17 75.2,43.38 -13.31,23.08 c -3.91,6.77 -3.52,15.1 0.76,21.64 2.35,3.61 4.52,7.34 6.48,11.19 3.54,6.94 10.55,11.4 18.33,11.4 h 26.58 v 86.85 h -26.58 c -7.78,0 -14.79,4.46 -18.33,11.39 -1.96,3.86 -4.13,7.59 -6.48,11.19 -4.28,6.55 -4.67,14.88 -0.76,21.65 l 13.31,23.08 -75.2,43.39 -13.32,-23.09 c -3.9,-6.75 -11.31,-10.47 -19.1,-10.07 -2.12,0.1 -4.27,0.16 -6.44,0.16 -2.13,0 -4.26,-0.06 -6.38,-0.16 -7.82,-0.41 -15.26,3.33 -19.17,10.1 l -13.29,23.06"
         style="fill:#e7e8e5;fill-opacity:1;fill-rule:nonzero;stroke:none"
         id="path26" /><path
         d="m 1106.07,3578.21 c 38.94,5.07 74.59,-22.37 79.66,-61.31 5.07,-38.95 -22.36,-74.67 -61.3,-79.73 -38.95,-5.07 -74.67,22.42 -79.74,61.37 -5.07,38.94 22.44,74.6 61.38,79.67 z m -49.24,77.3 -68.963,-52.73 16.153,-21.1 c 4.75,-6.21 5.45,-14.52 2.06,-21.56 -1.87,-3.89 -3.54,-7.89 -4.99,-11.99 -2.606,-7.34 -8.985,-12.68 -16.715,-13.69 l -26.352,-3.43 11.211,-86.11 26.352,3.42 c 7.734,1.01 15.264,-2.52 19.664,-8.94 2.45,-3.59 5.08,-7.04 7.89,-10.32 5.08,-5.94 6.53,-14.14 3.52,-21.36 l -10.21,-24.54 80.17,-33.32 10.21,24.64 c 2.99,7.23 9.89,11.89 17.69,12.5 2.11,0.17 4.23,0.39 6.35,0.66 2.12,0.28 4.23,0.61 6.32,0.99 7.66,1.4 15.48,-1.32 20.21,-7.5 l 16.27,-21.26 68.97,52.73 -16.18,21.17 c -4.75,6.21 -5.44,14.52 -2.04,21.56 1.87,3.87 3.53,7.86 4.98,11.94 2.62,7.33 8.99,12.66 16.72,13.66 l 26.36,3.43 -11.21,86.12 -26.36,-3.43 c -7.72,-1.01 -15.25,2.52 -19.66,8.93 -2.44,3.57 -5.07,7 -7.87,10.27 -5.09,5.94 -6.54,14.14 -3.55,21.36 l 10.22,24.6 -80.16,33.33 -10.23,-24.62 c -2.99,-7.19 -9.87,-11.83 -17.64,-12.45 -2.12,-0.17 -4.26,-0.39 -6.41,-0.67 -2.11,-0.28 -4.22,-0.6 -6.31,-0.98 -7.69,-1.41 -15.56,1.33 -20.31,7.54 l -16.16,21.15"
         style="fill:#e7e8e5;fill-opacity:1;fill-rule:nonzero;stroke:none"
         id="path28" /><path
         d="m 541.992,1399.31 c 3.938,96.76 2.356,193.72 -3.984,290.35 -13.082,199.3 -45.895,397.06 -90.957,591.53 -25.36,109.47 -56.598,217.09 -89.141,324.58 -0.98,3.25 -6.164,2.33 -5.262,-1.05 100.637,-378.95 183.211,-770.03 177.524,-1163.96 -1.594,-110.25 -14.352,-218.53 -24.82,-328.08 -0.278,-2.93 4.543,-4.11 5.211,-1.1 20.777,93.75 27.535,191.98 31.429,287.73"
         style="fill:#e7e8e5;fill-opacity:1;fill-rule:nonzero;stroke:none"
         id="path30" /><path
         d="m 352.648,2604.72 c 0,0 -152.46,-386.98 -118.328,-477.94 34.137,-90.96 104.504,-110.36 104.504,-110.36 0,0 -93.281,-133.18 -28.097,-258.09 65.191,-124.91 210.019,-119 219.644,-260.64 0,0 8.07,592.2 -177.723,1107.03"
         style="fill:#e7e8e5;fill-opacity:1;fill-rule:nonzero;stroke:none"
         id="path32" /><path
         d="m 513.801,1742.22 -0.153,2.04 c -21.414,263.12 -68.097,525.43 -147.886,778.47 l -1.254,-0.27 c 30.203,-113.2 57.086,-227.01 80.055,-341.44 -19.797,20.39 -45.696,32.11 -72.778,40.58 l -0.277,-0.78 c 28.199,-12.19 55.215,-26.32 75.148,-50.21 4.453,-22.42 8.809,-44.86 12.949,-67.33 -34.07,38.07 -81.32,56.97 -128.597,74.92 l -0.371,-1.03 c 49.242,-20.05 98.285,-45.88 131.648,-88.31 11.633,-64.22 21.813,-128.67 30.621,-193.31 -24.902,26.02 -55.644,43.51 -90.914,52.1 -1.058,0.26 -1.648,-1.31 -0.574,-1.63 36.23,-10.42 67.391,-30.71 92.199,-59.05 l 0.567,-0.43 c 3.05,-22.74 5.933,-45.52 8.629,-68.31 -19.184,16.36 -40.379,28.81 -63.719,38.44 l -0.348,-0.97 c 23.711,-10.1 45.043,-24.64 63.82,-42.24 l 0.813,-0.33 c 2.539,-21.67 5.066,-43.35 7.262,-65.06 -34.957,42.11 -78.176,72.59 -129.309,92.32 -1,0.39 -1.512,-1.13 -0.551,-1.55 49.715,-21.62 93.543,-55.87 127.434,-98.06 0.93,-1.16 2.14,-1.35 3.211,-1.01 3.297,-33.31 6.25,-66.66 8.695,-100.06 l 0.758,-0.04 c -1.926,34.19 -4.316,68.38 -7.078,102.55"
         style="fill:#ffffff;fill-opacity:1;fill-rule:nonzero;stroke:none"
         id="path34" /><path
         d="m 391.301,2260.05 c -26.442,18.18 -60.039,25.93 -91.598,28.56 l -0.086,-1.16 c 32.828,-4.88 60.406,-16.76 90.571,-29.58 1.312,-0.56 2.25,1.4 1.113,2.18"
         style="fill:#ffffff;fill-opacity:1;fill-rule:nonzero;stroke:none"
         id="path36" /><path
         d="m 409.805,1850.35 c -20.918,12.55 -44.789,19.65 -68.758,23.52 l -0.094,-1.31 c 24.34,-4.41 45.899,-13.08 68.016,-23.86 0.949,-0.46 1.734,1.1 0.836,1.65"
         style="fill:#ffffff;fill-opacity:1;fill-rule:nonzero;stroke:none"
         id="path38" /><path
         d="m 942.789,2120.46 c -63.586,-44.69 -124.598,-96.25 -176.465,-154.25 -55.285,-61.82 -95.601,-131.99 -123.761,-209.87 -57.684,-159.56 -89.309,-332.4 -92.192,-501.97 -1.617,-95.05 6.836,-189.37 27.172,-282.28 0.742,-3.379 5.797,-2.418 5.277,1 -24.855,163.46 -23.949,330.27 2.766,493.43 26.211,160.09 67.34,334.26 169.102,464.36 55.41,70.85 124.496,126.58 192.796,184.18 3.59,3.03 -1,8.01 -4.695,5.4"
         style="fill:#e7e8e5;fill-opacity:1;fill-rule:nonzero;stroke:none"
         id="path40" /><path
         d="m 572.809,1369.65 c 0,0 52.363,88.17 128.632,164.42 76.27,76.25 140.508,130.45 150.418,180.88 9.918,50.42 -76.398,87.57 -76.398,87.57 0,0 105.547,-18.95 134.422,25.34 28.879,44.3 42.82,300.85 42.82,300.85 0,0 -192.012,-137.09 -281.473,-329.26 -89.46,-192.17 -98.421,-429.8 -98.421,-429.8"
         style="fill:#e7e8e5;fill-opacity:1;fill-rule:nonzero;stroke:none"
         id="path42" /><path
         d="m 886.273,2062.94 c -80.789,-79.35 -162.101,-163.91 -209.679,-268.16 -16.313,-35.74 -30.192,-72.81 -42.414,-110.57 l -0.059,-0.18 c -2.449,-7.58 -4.937,-15.14 -7.25,-22.78 l -0.387,-1.24 c -23.519,-77.86 -40.144,-158.37 -54.55,-237.03 l 0.785,-0.25 c 8.277,40.03 17.398,80.44 27.597,120.75 l 1.149,0.22 c 16.332,6.87 32.754,11.16 50.387,12.79 1.144,0.11 1.054,2.1 -0.11,2.04 -17.015,-0.81 -33.672,-3.79 -49.84,-9.09 9.305,36.34 19.411,72.58 30.778,108.29 37.07,9.09 75.758,13.98 113.883,14.9 l 0.054,0.61 c -38.433,1.79 -74.547,-1.52 -111.976,-9.5 1.976,6.13 4.043,12.22 6.086,18.32 25.035,5.7 50.171,10.5 75.789,12.84 l -0.047,0.82 c -25.078,-0.67 -49.793,-3.32 -74.203,-9.02 10.449,30.91 21.738,61.4 34.265,91.08 10.36,24.55 22.68,47.88 36.25,70.38 20.532,4.65 40.434,9.09 61.473,10.96 l -0.055,1.03 c -19.097,1.24 -38.996,-0.19 -57.469,-5.68 10.102,16.31 20.711,32.29 32.063,47.77 h 0.012 c 43.058,9.54 86.699,18.38 130.746,10.11 l 0.289,1.33 c -41.934,11.04 -83.551,4.67 -125.274,-3.58 4.551,6.05 9.207,12.04 13.911,17.99 26.433,8.17 52.722,12.11 80.453,12.63 l 0.074,0.89 c -25.309,2.41 -50.551,-0.04 -75.012,-6.66 35.602,44.23 74.918,85.76 113.789,126.85 1.809,1.91 0.407,3.02 -1.508,1.14"
         style="fill:#ffffff;fill-opacity:1;fill-rule:nonzero;stroke:none"
         id="path44" /><path
         d="m 884.125,1888.06 c -12.637,1.34 -25.492,2.76 -38.191,1.32 -1.536,-0.16 -1.403,-2.67 0.14,-2.71 12.641,-0.37 25.278,0.57 37.926,-0.12 0.973,-0.06 1.094,1.41 0.125,1.51"
         style="fill:#ffffff;fill-opacity:1;fill-rule:nonzero;stroke:none"
         id="path46" /><path
         d="m 745.922,1639.18 c -20.176,0.25 -40.332,-5.18 -59.18,-11.88 l 0.281,-0.85 c 19.54,4.66 39.309,6.55 59.051,9.81 1.614,0.26 1.539,2.9 -0.152,2.92"
         style="fill:#ffffff;fill-opacity:1;fill-rule:nonzero;stroke:none"
         id="path48" /><path
         d="m 704.504,1725.16 c -8.191,0.43 -17.055,-1.01 -25.125,-2.27 l 0.078,-1.5 c 8.164,-0.14 17.137,-0.37 25.176,1.18 1.426,0.27 1.363,2.51 -0.129,2.59"
         style="fill:#ffffff;fill-opacity:1;fill-rule:nonzero;stroke:none"
         id="path50" /><path
         d="m 9.93359,1848.2 c 61.78521,-21.47 123.07841,-49.09 178.46141,-84.04 59.027,-37.26 107.878,-84.73 148.668,-141.25 83.562,-115.79 149.105,-248.35 190.628,-384.91 23.282,-76.56 38.239,-154.85 43.254,-234.74 0.184,-2.9 -4.129,-3.299 -4.5,-0.41 -17.668,138.04 -56.953,272.82 -116.289,398.69 -58.215,123.5 -131.754,254.94 -244.179,336.71 -61.215,44.53 -130.0082,73.66 -198.59419,104.49 -3.60156,1.62 -1.04297,6.71 2.55078,5.46"
         style="fill:#e7e8e5;fill-opacity:1;fill-rule:nonzero;stroke:none"
         id="path52" /><path
         d="m 482.887,1326.09 c 0,0 -62.754,59.26 -142.102,103.34 -79.344,44.08 -143.855,73.09 -163.539,111.61 -19.68,38.52 41.594,88.53 41.594,88.53 0,0 -81.043,-39.74 -114.649,-10.56 C 70.582,1648.18 0,1852.59 0,1852.59 c 0,0 187.078,-66.57 303.898,-201.41 116.817,-134.84 178.989,-325.09 178.989,-325.09"
         style="fill:#e7e8e5;fill-opacity:1;fill-rule:nonzero;stroke:none"
         id="path54" /><path
         d="m 473.145,1368.25 c -93.567,175.64 -218.418,334.51 -389.4927,439.39 l -0.082,-0.12 c 45.0387,-28.69 86.5427,-61.8 125.2187,-97.99 -34.625,0.96 -69.883,-4.55 -100.582,-21.23 l 0.508,-1.05 c 34.219,11.58 67.098,19.18 103.492,17.49 l 1.172,0.44 c 6.074,-5.76 12.062,-11.61 17.992,-17.51 -18.004,-0.78 -36.211,-3.32 -53.75,-7.14 l 0.149,-0.75 c 18.976,3.68 37.507,4.96 56.769,4.69 31.352,-31.5 60.559,-65.2 88.238,-100.19 -12.496,1.81 -25.597,0.76 -37.578,-2.73 -0.886,-0.26 -0.66,-1.54 0.274,-1.41 13.632,1.71 26.582,1.49 40.117,0.54 5.125,-6.52 10.301,-13 15.312,-19.61 -38.468,2.33 -76.156,-1.36 -113.543,-11.03 l 0.168,-0.87 c 38.563,7.57 77.446,9.98 116.621,7.57 4.774,-6.33 9.293,-12.84 13.973,-19.24 -22.953,0.69 -45.211,-2.17 -67.59,-7.74 l 0.258,-1.35 c 23.024,5.24 46.434,6.57 69.969,5.45 20.125,-27.74 39.41,-56.08 57.933,-84.77 -9.808,2.02 -20.105,0.92 -29.664,-1.79 l 0.157,-0.81 c 11.011,1.29 21.289,-0.12 32.105,-1.52 16.664,-25.94 32.766,-52.14 48.203,-78.49 1.305,-2.21 4.895,-0.55 3.653,1.77"
         style="fill:#ffffff;fill-opacity:1;fill-rule:nonzero;stroke:none"
         id="path56" /><path
         d="m 327.598,1513.93 c -18.289,1.57 -36.879,-1.3 -54.352,-6.65 l 0.156,-0.81 c 17.985,3.32 35.817,4.57 54.047,5.54 1.199,0.07 1.43,1.82 0.149,1.92"
         style="fill:#ffffff;fill-opacity:1;fill-rule:nonzero;stroke:none"
         id="path58" /><path
         d="m 164.414,1727.97 c -8.269,0.94 -16.898,-0.15 -25.066,-1.46 -0.973,-0.15 -0.672,-1.59 0.281,-1.49 8.242,0.89 16.371,0.58 24.617,0.82 1.344,0.04 1.559,1.96 0.168,2.13"
         style="fill:#ffffff;fill-opacity:1;fill-rule:nonzero;stroke:none"
         id="path60" /><path
         d="M 724.184,745.332 H 301.898 l 60.211,441.078 15.391,113.09 h 271.086 l 15.391,-113.09 60.207,-441.078"
         style="fill:#d4d6d3;fill-opacity:1;fill-rule:nonzero;stroke:none"
         id="path62" /><path
         d="M 663.977,1186.41 H 362.109 L 377.5,1299.5 h 271.086 l 15.391,-113.09"
         style="fill:#bebfbd;fill-opacity:1;fill-rule:nonzero;stroke:none"
         id="path64" /><path
         d="M 687.355,1242.95 H 338.73 v 95.78 h 348.625 v -95.78"
         style="fill:#d4d6d3;fill-opacity:1;fill-rule:nonzero;stroke:none"
         id="path66" /><path
         d="m 33.4375,745.332 760.0935,2.43 760.089,0.886 1520.18,1.672 1520.17,-1.66 760.1,-0.879 760.09,-2.449 -760.09,-2.441 -760.1,-0.879 -1520.17,-1.672 -1520.18,1.68 -760.089,0.878 -760.0935,2.434"
         style="fill:#17282f;fill-opacity:1;fill-rule:nonzero;stroke:none"
         id="path68" /><path
         d="M 5961.22,314.199 C 5961.22,140.66 4677.43,0 3093.8,0 1510.17,0 226.379,140.66 226.379,314.199 c 0,173.52 1283.791,314.192 2867.421,314.192 1583.63,0 2867.42,-140.672 2867.42,-314.192"
         style="fill:#e7e8e5;fill-opacity:1;fill-rule:nonzero;stroke:none"
         id="path70" /><path
         d="m 2426.31,366.262 c -23.31,-7.891 -691.45,-10.242 -716.98,5.777 -9.72,6.02 -15.74,103.313 -19.67,221.063 -0.86,25.429 -1.58,51.699 -2.16,78.378 l -54.18,356.36 446.65,2.86 42.16,-356.43 -1.71,-78.399 c 0,0 256.21,-113.519 282.33,-134.09 25.98,-20.57 46.87,-87.633 23.56,-95.519"
         style="fill:#f57a76;fill-opacity:1;fill-rule:nonzero;stroke:none"
         id="path72" /><path
         d="m 2426.31,366.262 c -23.31,-7.891 -691.45,-10.242 -716.98,5.777 -11.81,7.383 -18.25,149.461 -21.83,299.441 l 434.63,2.79 -1.71,-78.399 c 0,0 256.21,-113.519 282.33,-134.09 25.98,-20.57 46.87,-87.633 23.56,-95.519"
         style="fill:#ffffff;fill-opacity:1;fill-rule:nonzero;stroke:none"
         id="path74" /><path
         d="m 2426.31,366.262 c -23.31,-7.891 -691.45,-10.242 -716.98,5.777 -9.72,6.02 -15.74,103.313 -19.67,221.063 l 430.76,2.769 c 0,0 256.21,-113.519 282.33,-134.09 25.98,-20.57 46.87,-87.633 23.56,-95.519"
         style="fill:#999b9b;fill-opacity:1;fill-rule:nonzero;stroke:none"
         id="path76" /><path
         d="m 2416.64,392.961 c -112.01,2.348 -564.01,1.289 -674.91,-4.891 -0.9,-0.05 -0.9,-0.672 0,-0.711 110.97,-4.757 562.95,-0.039 674.92,3.762 2.36,0.078 2.35,1.789 -0.01,1.84"
         style="fill:#17282f;fill-opacity:1;fill-rule:nonzero;stroke:none"
         id="path78" /><path
         d="m 2359.69,485.66 c -26.56,0.988 -52.48,-11.711 -66.9,-27.578 -13.86,-15.25 -25.69,-36.66 -24.82,-59.891 l 1.35,0.008 c 6.24,43.852 45.97,82.492 90.38,86.063 0.9,0.07 0.91,1.367 -0.01,1.398"
         style="fill:#17282f;fill-opacity:1;fill-rule:nonzero;stroke:none"
         id="path80" /><path
         d="m 2163.9,584.879 c -44.83,0.461 -96.75,-15.539 -124.48,-52.297 -1.07,-1.434 0.97,-2.934 2.3,-2.242 40.45,21.039 78.92,36.73 122.97,49.019 3.11,0.871 2.42,5.481 -0.79,5.52"
         style="fill:#17282f;fill-opacity:1;fill-rule:nonzero;stroke:none"
         id="path82" /><path
         d="m 2198.55,571.512 c -44.83,0.457 -96.74,-15.543 -124.47,-52.301 -1.08,-1.43 0.96,-2.93 2.29,-2.242 40.45,21.043 78.92,36.73 122.98,49.031 3.1,0.859 2.41,5.469 -0.8,5.512"
         style="fill:#17282f;fill-opacity:1;fill-rule:nonzero;stroke:none"
         id="path84" /><path
         d="m 2233.21,558.141 c -44.83,0.461 -96.75,-15.539 -124.48,-52.301 -1.07,-1.43 0.97,-2.93 2.3,-2.238 40.45,21.039 78.92,36.73 122.97,49.027 3.1,0.871 2.42,5.473 -0.79,5.512"
         style="fill:#17282f;fill-opacity:1;fill-rule:nonzero;stroke:none"
         id="path86" /><path
         d="m 2267.86,544.781 c -44.83,0.449 -96.75,-15.551 -124.47,-52.312 -1.08,-1.43 0.96,-2.93 2.29,-2.239 40.45,21.032 78.92,36.731 122.97,49.032 3.11,0.867 2.42,5.476 -0.79,5.519"
         style="fill:#17282f;fill-opacity:1;fill-rule:nonzero;stroke:none"
         id="path88" /><path
         d="m 1769.89,494.539 c -50.3,-0.32 -49.88,-78.488 0.5,-78.16 50.29,0.32 49.88,78.48 -0.5,78.16"
         style="fill:#17282f;fill-opacity:1;fill-rule:nonzero;stroke:none"
         id="path90" /><path
         d="m 2157.26,609.199 c -15.4,-11.289 -31.24,-21.758 -46.22,-33.617 7.93,22.367 14.85,44.957 25.03,66.508 4.86,10.281 10.04,20.762 16.27,30.301 9.69,14.847 53.55,52.461 58.19,3.699 2.55,-26.871 -34.92,-53.418 -53.27,-66.891 m 54.66,95.473 c -22.75,18.738 -51.27,0.25 -65.2,-19.34 -22.54,-31.723 -37.96,-76.121 -40.33,-114.773 -0.05,-0.95 0.67,-1.329 1.41,-1.278 0.96,-3.211 4.77,-5.89 8.07,-3.59 31.84,22.188 68.63,41.969 92.71,73.258 14.06,18.281 24.87,48 3.34,65.723"
         style="fill:#17282f;fill-opacity:1;fill-rule:nonzero;stroke:none"
         id="path92" /><path
         d="m 1967.93,578.961 c -30.47,38.348 27.22,41.648 44.5,37.668 11.09,-2.547 22.09,-6.5 32.72,-10.551 22.28,-8.469 42.94,-19.957 64.16,-30.578 -19.02,-1.828 -37.7,-5.281 -56.62,-7.809 -22.56,-3.019 -67.97,-9.871 -84.76,11.27 m 27.14,-25.422 c 39.06,-5.859 79.28,5.402 117.61,11.492 3.98,0.617 4.85,5.188 3.33,8.18 l 0.13,1.898 c -28.51,26.211 -70.4,47.52 -108.65,54.743 -23.61,4.468 -56.98,-1.993 -60.39,-31.274 -3.22,-27.687 25.18,-41.609 47.97,-45.039"
         style="fill:#17282f;fill-opacity:1;fill-rule:nonzero;stroke:none"
         id="path94" /><path
         d="m 976.984,2675.11 c 0,0 518.696,-882.4 532.586,-944.35 21.34,-95.19 134.47,-1035.35 134.47,-1035.35 l 539.71,9.719 c 0,0 -93.02,828.911 -181.12,1102.001 -63.46,196.7 -521.22,849.09 -521.22,849.09 l -504.426,18.89"
         style="fill:#273e47;fill-opacity:1;fill-rule:nonzero;stroke:none"
         id="path96" /><path
         d="m 2134.67,787.871 c -77.51,0.57 -352.17,3.66 -455.33,-5.973 l 0.02,-1.476 c 35.5,-5.113 377.87,2.828 455.34,5.316 1.46,0.051 1.43,2.121 -0.03,2.133"
         style="fill:#17282f;fill-opacity:1;fill-rule:nonzero;stroke:none"
         id="path98" /><path
         d="m 1065.52,2594.14 c 33.99,-53.32 69.85,-105.52 104.6,-158.36 34.77,-52.87 69.42,-105.82 103.6,-159.06 68.34,-106.41 134.88,-213.92 200.21,-322.11 30.64,-50.74 59.82,-101.95 80.86,-157.3 20.84,-54.82 35.03,-111.86 45.53,-169.36 10.57,-57.93 17.54,-116.41 24.12,-174.87 7,-62.25 13.9,-124.52 20.85,-186.77 14.22,-127.39 28.44,-254.78 42.66,-382.169 1.75,-15.629 3.46,-31.25 5.02,-46.891 0.23,-2.289 -3.87,-2.75 -4.16,-0.449 -15.88,126.578 -29.07,253.529 -43.5,380.289 -7.18,63.09 -14.36,126.2 -21.54,189.3 -6.68,58.67 -13.03,117.41 -22.13,175.78 -8.95,57.33 -20.57,114.42 -38.02,169.92 -18.22,57.98 -44.04,112.42 -74.62,165.14 -62.54,107.86 -128.73,213.89 -194.94,319.64 -66.78,106.67 -134.12,213.04 -203.96,317.83 -8.63,12.94 -17.32,25.8 -26.26,38.54 -0.7,0.98 1.02,1.93 1.68,0.9"
         style="fill:#17282f;fill-opacity:1;fill-rule:nonzero;stroke:none"
         id="path100" /><path
         d="m 1147.02,314.219 c -24.61,1.5 -659.957,258.929 -677.668,283.332 -0.586,0.82 -0.938,2.418 -0.973,4.699 0.117,21.84 44.117,98.32 80.894,198.66 2.305,6.41 18.696,36.192 41.457,76.352 62.567,110.277 173.262,299.208 173.262,299.208 l 415.288,-165 -198.772,-297.548 -30.942,-72.031 c 0,0 194.904,-201.411 211.364,-230.25 16.36,-28.809 10.61,-98.821 -13.91,-97.422"
         style="fill:#f57a76;fill-opacity:1;fill-rule:nonzero;stroke:none"
         id="path102" /><path
         d="m 1147.02,314.219 c -24.61,1.5 -659.957,258.929 -677.668,283.332 -0.586,0.82 -0.938,2.418 -0.973,4.699 0.117,21.84 44.117,98.32 80.894,198.66 2.305,6.41 18.696,36.192 41.457,76.352 l 389.778,-163.34 -30.942,-72.031 c 0,0 194.904,-201.411 211.364,-230.25 16.36,-28.809 10.61,-98.821 -13.91,-97.422"
         style="fill:#ffffff;fill-opacity:1;fill-rule:nonzero;stroke:none"
         id="path104" /><path
         d="m 1146.98,314.27 c -24.58,1.421 -659.949,258.878 -677.621,283.312 -6.742,9.227 21.664,95.988 79.86,203.309 L 949.555,641.852 c 0,0 194.915,-201.332 211.415,-230.204 16.37,-28.816 10.57,-98.816 -13.99,-97.378"
         style="fill:#999b9b;fill-opacity:1;fill-rule:nonzero;stroke:none"
         id="path106" /><path
         d="M 1148.02,342.641 C 1045.07,386.84 625.688,555.41 520.57,591.289 l -0.261,-0.66 C 621.387,544.59 1042.12,379.422 1147.34,340.941 c 2.22,-0.82 2.86,0.77 0.68,1.7"
         style="fill:#17282f;fill-opacity:1;fill-rule:nonzero;stroke:none"
         id="path108" /><path
         d="m 1130.01,449.941 c -24.25,10.879 -53.04,8.821 -72.36,-0.48 -18.57,-8.922 -37.57,-24.34 -45.48,-46.199 l 1.26,-0.5 c 22.23,38.308 73.56,59.218 116.07,45.867 l 0.51,1.312"
         style="fill:#17282f;fill-opacity:1;fill-rule:nonzero;stroke:none"
         id="path110" /><path
         d="m 985.742,615.359 c -41.383,17.25 -95.512,21.891 -135.004,-1.789 -1.535,-0.91 -0.207,-3.07 1.285,-2.941 45.383,4.332 86.93,4.453 132.379,-0.68 3.211,-0.359 4.305,4.172 1.34,5.41"
         style="fill:#17282f;fill-opacity:1;fill-rule:nonzero;stroke:none"
         id="path112" /><path
         d="m 1012.85,589.961 c -41.385,17.258 -95.51,21.891 -135.006,-1.781 -1.531,-0.918 -0.203,-3.078 1.289,-2.942 45.383,4.332 86.933,4.453 132.377,-0.679 3.21,-0.368 4.3,4.171 1.34,5.402"
         style="fill:#17282f;fill-opacity:1;fill-rule:nonzero;stroke:none"
         id="path114" /><path
         d="m 1039.96,564.57 c -41.386,17.25 -95.519,21.879 -135.011,-1.789 -1.531,-0.91 -0.203,-3.07 1.285,-2.929 45.387,4.32 86.942,4.449 132.386,-0.692 3.2,-0.359 4.3,4.18 1.34,5.41"
         style="fill:#17282f;fill-opacity:1;fill-rule:nonzero;stroke:none"
         id="path116" /><path
         d="m 1067.06,539.18 c -41.38,17.25 -95.505,21.879 -134.997,-1.789 -1.536,-0.922 -0.211,-3.071 1.281,-2.942 45.386,4.332 86.936,4.461 132.386,-0.679 3.2,-0.36 4.29,4.171 1.33,5.41"
         style="fill:#17282f;fill-opacity:1;fill-rule:nonzero;stroke:none"
         id="path118" /><path
         d="M 586.617,679.422 C 539.871,698 510.938,625.391 557.754,606.789 c 46.742,-18.578 75.684,54.043 28.863,72.633"
         style="fill:#17282f;fill-opacity:1;fill-rule:nonzero;stroke:none"
         id="path120" /><path
         d="m 988.711,640.391 c -18.508,-4.692 -37.129,-8.45 -55.457,-13.832 15.738,17.773 30.629,36.113 48.148,52.281 8.364,7.699 17.098,15.469 26.448,21.969 14.55,10.132 69.33,28.543 55.33,-18.387 -7.72,-25.883 -52.41,-36.422 -74.469,-42.031 z m 86.489,67.988 c -14.07,25.91 -47.45,19.473 -67.7,6.531 -32.797,-20.941 -63.746,-56.32 -80.437,-91.262 l 0.82,-1.707 c -0.309,-3.339 2.211,-7.25 6.137,-6.351 37.835,8.621 79.36,13.152 113.42,33.129 19.89,11.66 41.06,35.172 27.76,59.66"
         style="fill:#17282f;fill-opacity:1;fill-rule:nonzero;stroke:none"
         id="path122" /><path
         d="m 801.855,683.398 c -13.859,46.973 40.864,28.391 55.387,18.223 9.328,-6.531 18.039,-14.332 26.375,-22.062 17.473,-16.219 32.313,-34.61 48,-52.411 -18.316,5.434 -36.926,9.25 -55.422,13.993 -22.039,5.668 -66.703,16.351 -74.34,42.257 z m 15.633,-33.75 c 34.004,-20.078 75.516,-24.738 113.325,-33.476 3.917,-0.91 6.453,3 6.156,6.34 l 0.824,1.707 c -16.586,34.98 -47.426,70.461 -80.16,91.5 -20.215,12.992 -53.57,19.531 -67.715,-6.328 -13.379,-24.461 7.723,-48.02 27.57,-59.743"
         style="fill:#17282f;fill-opacity:1;fill-rule:nonzero;stroke:none"
         id="path124" /><path
         d="m 1012.55,730.57 -464.851,187.7 c 0,0 576.361,847.45 580.631,910.53 3.77,55.87 -249.385,542.08 -259.361,683.78 -10.766,152.92 62.871,271.28 143.781,344.73 l 479.55,-203.84 c 0,0 -50.61,-80.98 -130.33,-126.04 0,0 245.92,-562.01 231.97,-734.81 C 1579.91,1618.88 1012.55,730.57 1012.55,730.57"
         style="fill:#273e47;fill-opacity:1;fill-rule:nonzero;stroke:none"
         id="path126" /><path
         d="m 1033.2,818.969 c -67.223,28.902 -47.52,21.562 -115.063,49.711 -33.059,13.781 -250.34,104.101 -283.418,111.531 l -0.563,-1.371 c 28.918,-17.711 247.739,-104.231 281.055,-117.371 68.07,-26.84 48.816,-18.387 117.189,-44.481 1.28,-0.488 2.06,1.442 0.8,1.981"
         style="fill:#17282f;fill-opacity:1;fill-rule:nonzero;stroke:none"
         id="path128" /><path
         d="m 1440.91,2537.71 c -49.96,-10.74 -98.97,-28.39 -146.05,-47.36 -1.85,-0.74 -0.98,-3.49 0.99,-2.91 49.03,14.31 98.89,27.68 147.01,44.59 3.78,1.32 1.88,6.5 -1.95,5.68"
         style="fill:#17282f;fill-opacity:1;fill-rule:nonzero;stroke:none"
         id="path130" /><path
         d="m 1384.02,2557.45 c -4.72,-8.25 -8.74,-16.92 -12.32,-25.7 -2.77,-6.81 -6.32,-14.1 -6.29,-21.53 0.01,-1.44 1.95,-1.79 2.84,-0.91 5.56,5.47 8.53,13.47 12.05,20.3 4.08,7.92 8.34,15.76 12.19,23.78 2.54,5.33 -5.56,9.14 -8.47,4.06"
         style="fill:#17282f;fill-opacity:1;fill-rule:nonzero;stroke:none"
         id="path132" /><path
         d="m 1389.84,2602.53 c 2.94,7.38 5.9,14.74 9,22.06 3.21,7.57 6.95,15.03 9.56,22.82 0.41,1.23 2.35,0.4 1.86,-0.83 -2.92,-7.4 -4.84,-15.28 -7.19,-22.87 -2.36,-7.64 -4.85,-15.22 -7.37,-22.8 -4.7,-14.11 -10.45,-28.12 -16.52,-41.73 7.85,0.1 15.92,0.45 23.05,4 7.73,3.86 12.43,12.08 16.24,19.51 4.23,8.26 8.11,16.69 12.47,24.88 4.81,9.07 10.13,18.02 13.3,27.83 0.4,1.24 2.31,0.41 1.87,-0.84 -7.22,-20.24 -14.32,-40.47 -25.55,-59.13 -4.42,-7.33 -7.99,-14.95 -16.13,-17.82 -8.73,-3.09 -18.28,-2.48 -27.36,-1.83 -1.13,-0.31 -2.58,0.41 -2.19,1.77 4.31,15.1 9.14,30.4 14.96,44.98"
         style="fill:#17282f;fill-opacity:1;fill-rule:nonzero;stroke:none"
         id="path134" /><path
         d="m 1369.44,2509.13 c 17.04,-36.14 32.03,-72.13 47.97,-108.13 15.57,-35.18 30.14,-70.77 44.3,-106.53 28.6,-72.27 54.22,-145.86 76.69,-220.26 11.13,-36.82 21.37,-73.9 30.62,-111.23 9.28,-37.43 18.35,-75.24 22.2,-113.68 3.85,-38.56 1.11,-76.69 -9.63,-113.98 -10.9,-37.83 -25.27,-70.87 -42.32,-106.26 -10.42,-21.63 -14.01,-18.71 -8.96,-7.79 14.31,30.98 51.78,124.85 49.07,203.78 -1.32,38.08 -9.14,75.58 -17.73,112.59 -8.78,37.76 -18.7,75.27 -29.51,112.51 -21.3,73.37 -46.6,145.29 -72.63,217.09 -14.58,40.23 -30.23,80.04 -45.03,120.19 -14.9,40.45 -30.28,76.83 -46.82,120.99 -0.43,1.15 1.26,1.82 1.78,0.71"
         style="fill:#17282f;fill-opacity:1;fill-rule:nonzero;stroke:none"
         id="path136" /><path
         d="m 1016.5,2628.47 c 8.32,3.08 19.88,-2.02 28.37,-3.45 10.89,-1.83 21.9,-2.94 32.94,-3.32 10.88,-0.37 21.84,0.08 32.68,1.13 10.82,1.05 21.87,2.39 31.29,8.26 15.86,9.91 29.13,27.34 39.88,42.36 11.81,16.51 24.07,35.49 31.11,54.62 0.43,1.17 2.11,0.37 1.75,-0.79 -3.5,-11.14 -6.1,-22.38 -10.56,-33.28 -4.18,-10.25 -9.59,-20.05 -15.34,-29.49 -10.72,-17.65 -23.01,-36.47 -41.4,-46.96 -19.29,-11.01 -44.14,-10.35 -65.65,-9.11 -12.44,0.72 -24.83,2.37 -37.02,4.93 -8.81,1.86 -23.61,3.27 -29.23,11.01 -0.99,1.37 -0.46,3.48 1.18,4.09"
         style="fill:#17282f;fill-opacity:1;fill-rule:nonzero;stroke:none"
         id="path138" /><path
         d="m 680.398,1006.86 c 76.415,115.64 151.399,232.22 225.036,349.64 73.839,117.74 146.296,236.31 217.756,355.5 17.09,28.51 36.84,56.98 47.85,88.56 11.96,34.32 5.17,67.56 -5.67,101.15 -19.88,61.59 -44.64,121.52 -71.37,180.43 -26.8,59.08 -55.67,117.19 -84.06,175.52 -28.163,57.84 -58.131,115.88 -79.495,176.68 -20.402,58.07 -28.172,118.29 -12.511,178.52 15.539,59.76 49.152,113.42 84.246,163.5 9.27,13.2 18.69,26.3 27.99,39.48 0.7,1.01 2.23,-0.21 1.49,-1.2 -38.676,-52.21 -76.394,-107.47 -99.082,-168.77 -11.207,-30.28 -18.469,-62.17 -19.18,-94.54 -0.726,-32.82 5.434,-65.4 15.11,-96.67 18.801,-60.79 48.488,-118.37 76.152,-175.49 28.29,-58.39 57.33,-116.43 84.6,-175.3 27.43,-59.24 53.1,-119.39 74.19,-181.2 9.39,-27.52 19.86,-56.31 19.24,-85.81 -0.68,-32.3 -16.1,-61.38 -32.06,-88.61 -69.53,-118.55 -141.69,-235.62 -214.751,-352.03 -73.336,-116.85 -148.125,-232.77 -224.078,-347.94 -9.574,-14.52 -19.172,-29.03 -28.793,-43.52 -1.192,-1.81 -3.793,0.32 -2.61,2.1"
         style="fill:#17282f;fill-opacity:1;fill-rule:nonzero;stroke:none"
         id="path140" /><path
         d="m 1518.93,3192.45 c 43.28,-95 261.92,-225.93 364.34,-239.99 73.67,-10.12 297.39,-13.6 374.1,-1.89 89.86,13.72 21.21,256.31 -31.92,250.09 -145.99,-17.07 -269.96,-36.07 -308.93,-36.07 -47.58,0 -305.12,82.67 -336.15,94.3 -75.94,28.45 -85.99,-12.55 -61.44,-66.44"
         style="fill:#f57a76;fill-opacity:1;fill-rule:nonzero;stroke:none"
         id="path142" /><path
         d="m 1520.28,3167.3 c 54.79,-81.09 236.97,-213.65 236.97,-213.65 l 25.27,56.02 83.66,185.14 c 0,0 -167.29,52.79 -277.38,76.31 -14.87,3.19 -27.97,5.11 -39.39,5.61 -70.28,3.79 -76.38,-39.67 -29.13,-109.43"
         style="fill:#fabb1e;fill-opacity:1;fill-rule:nonzero;stroke:none"
         id="path144" /><path
         d="m 1520.28,3167.3 c 54.79,-81.09 236.97,-213.65 236.97,-213.65 l 25.27,56.02 c -67.93,78.85 -172.79,198.36 -233.11,267.06 -70.28,3.79 -76.38,-39.67 -29.13,-109.43"
         style="fill:#17282f;fill-opacity:1;fill-rule:nonzero;stroke:none"
         id="path146" /><path
         d="m 1724.4,2991.08 c 13.88,34.03 75.73,171.33 91.08,200.15 1.07,1.99 2.58,1.84 1.74,-0.38 -39.16,-102.91 -76.16,-167.51 -91.47,-200.24 l -1.35,0.47"
         style="fill:#17282f;fill-opacity:1;fill-rule:nonzero;stroke:none"
         id="path148" /><path
         d="m 2198.67,3198 c 88.85,11.65 198.77,31.59 291.84,-7.93 18.26,-7.75 24.88,-21.36 24.88,-21.36 42.03,-16.97 46.63,-41.91 46.63,-41.91 34.31,-27.79 35.52,-53.95 35.52,-53.95 0,0 49.13,-20.46 41.69,-52.21 -8.23,-35.62 -75.62,0.09 -124.68,-2.94 -112.42,-6.93 -270.27,-48.23 -302.49,-53.45 L 2198.67,3198"
         style="fill:#f57a76;fill-opacity:1;fill-rule:nonzero;stroke:none"
         id="path150" /><path
         d="m 2391.64,3093.23 c 33.12,1.38 65.62,3.6 98.76,0.48 36.36,-3.41 70.77,-12.79 106.05,-21.47 1.1,-0.27 1.59,1.23 0.54,1.67 -61.36,25.82 -140.05,32.6 -205.44,20.82 -1.58,-0.28 -1.57,-1.57 0.09,-1.5"
         style="fill:#17282f;fill-opacity:1;fill-rule:nonzero;stroke:none"
         id="path152" /><path
         d="m 2377.59,3160.47 c 32.31,-0.45 89.08,-1.59 184.09,-34.69 l 0.26,0.55 c -58.82,29.69 -119.14,40.25 -184.32,35.68 -2.03,-0.15 -2.18,-1.51 -0.03,-1.54"
         style="fill:#17282f;fill-opacity:1;fill-rule:nonzero;stroke:none"
         id="path154" /><path
         d="m 2370.72,3196.74 c 54.9,-2.84 89.16,-11.59 144.38,-28.19 l 0.23,0.57 c -60.78,25.45 -85.72,27.8 -144.78,29.53 -2.02,0.06 -1.98,-1.79 0.17,-1.91"
         style="fill:#17282f;fill-opacity:1;fill-rule:nonzero;stroke:none"
         id="path156" /><path
         d="m 2379.62,3000.77 c -14.28,-6.7 -10.86,-14.24 16.46,-20.57 27.63,-6.46 140.83,-8.18 136.84,-47.72 -3.94,-39.69 -164.11,-34.62 -208.79,-20.6 -44.73,13.93 -112.07,52.37 -112.07,52.37 31.36,5.29 106.19,25.36 167.56,36.52"
         style="fill:#f57a76;fill-opacity:1;fill-rule:nonzero;stroke:none"
         id="path158" /><path
         d="m 1637.83,3041 c -0.69,-17.09 -2.37,-34.48 -4.77,-51.71 l 0.73,1.84 c 3.33,9 6.58,18.23 10.61,26.93 l 0.92,-0.22 c -1.76,-9.45 -5.07,-18.93 -8.66,-27.83 -1.72,-4.25 -3.47,-8.5 -5.32,-12.71 -1.24,-7.68 -2.61,-15.31 -4.17,-22.82 -2.95,-14.3 -16.46,-75.13 -19.53,-85.41 -0.65,-2.17 -3.22,-1.67 -3.06,0.74 0.74,11.2 12.07,74.55 14.36,88.9 4.39,27.54 10.45,55.64 17.82,82.54 l 1.07,-0.25"
         style="fill:#17282f;fill-opacity:1;fill-rule:nonzero;stroke:none"
         id="path160" /><path
         d="m 1533.57,2586.39 c -26.67,-13.76 -61.07,-35.06 -216.05,-4.54 -9.69,1.96 -19.43,4.35 -29.2,7.25 -145.34,43.66 -319.672,214.58 -329.504,226.63 0,0 230.844,374.31 526.154,491.97 36.49,14.53 96.93,-13.5 130.38,-48.41 11.95,-12.46 37.87,-104.31 27.92,-178.74 -10.04,-74.31 -82.84,-480.55 -109.7,-494.16"
         style="fill:#fabb1e;fill-opacity:1;fill-rule:nonzero;stroke:none"
         id="path162" /><path
         d="m 1512.95,3083.97 c 0.85,-8.04 0.21,-15.88 -0.77,-23.66 -1.16,-7.76 -2.69,-15.46 -5.72,-22.96 -0.85,8.04 -0.22,15.87 0.78,23.65 1.18,7.76 2.71,15.46 5.71,22.97"
         style="fill:#ffffff;fill-opacity:1;fill-rule:nonzero;stroke:none"
         id="path164" /><path
         d="m 1412.29,2829.07 c 0.85,-8.04 0.21,-15.87 -0.77,-23.66 -1.17,-7.75 -2.7,-15.46 -5.72,-22.96 -0.86,8.04 -0.22,15.87 0.77,23.65 1.18,7.76 2.71,15.47 5.72,22.97"
         style="fill:#ffffff;fill-opacity:1;fill-rule:nonzero;stroke:none"
         id="path166" /><path
         d="m 1241.16,3021.71 c 0.85,-8.04 0.22,-15.87 -0.77,-23.65 -1.17,-7.76 -2.69,-15.47 -5.72,-22.97 -0.86,8.04 -0.22,15.87 0.77,23.65 1.19,7.76 2.71,15.47 5.72,22.97"
         style="fill:#ffffff;fill-opacity:1;fill-rule:nonzero;stroke:none"
         id="path168" /><path
         d="m 1578.9,2842 c 0.85,-8.04 0.21,-15.87 -0.77,-23.66 -1.17,-7.75 -2.7,-15.46 -5.72,-22.96 -0.86,8.04 -0.23,15.87 0.77,23.65 1.18,7.76 2.71,15.47 5.72,22.97"
         style="fill:#ffffff;fill-opacity:1;fill-rule:nonzero;stroke:none"
         id="path170" /><path
         d="m 1359.17,3054.77 c 8.03,0.85 15.86,0.21 23.65,-0.77 7.76,-1.17 15.46,-2.7 22.96,-5.72 -8.04,-0.86 -15.87,-0.22 -23.65,0.77 -7.75,1.18 -15.46,2.71 -22.96,5.72"
         style="fill:#ffffff;fill-opacity:1;fill-rule:nonzero;stroke:none"
         id="path172" /><path
         d="m 1164.96,2870.61 c 8.03,0.84 15.87,0.21 23.65,-0.77 7.76,-1.17 15.47,-2.7 22.97,-5.72 -8.04,-0.86 -15.88,-0.22 -23.66,0.77 -7.75,1.18 -15.46,2.71 -22.96,5.72"
         style="fill:#ffffff;fill-opacity:1;fill-rule:nonzero;stroke:none"
         id="path174" /><path
         d="m 1393.42,2671.29 c 8.04,0.85 15.88,0.22 23.66,-0.76 7.76,-1.18 15.46,-2.7 22.96,-5.73 -8.03,-0.86 -15.87,-0.22 -23.65,0.78 -7.76,1.18 -15.46,2.71 -22.97,5.71"
         style="fill:#ffffff;fill-opacity:1;fill-rule:nonzero;stroke:none"
         id="path176" /><path
         d="m 1105.09,2743.71 c 8.04,0.84 15.87,0.21 23.66,-0.78 7.75,-1.17 15.46,-2.7 22.96,-5.72 -8.04,-0.86 -15.87,-0.22 -23.65,0.77 -7.76,1.18 -15.47,2.71 -22.97,5.73"
         style="fill:#ffffff;fill-opacity:1;fill-rule:nonzero;stroke:none"
         id="path178" /><path
         d="m 1511.49,3263.13 c 8.04,0.84 15.87,0.21 23.66,-0.78 7.75,-1.17 15.46,-2.7 22.96,-5.72 -8.04,-0.86 -15.87,-0.22 -23.66,0.77 -7.75,1.18 -15.46,2.71 -22.96,5.73"
         style="fill:#ffffff;fill-opacity:1;fill-rule:nonzero;stroke:none"
         id="path180" /><path
         d="m 1455.05,3199.33 c -5.09,-6.28 -11.08,-11.37 -17.28,-16.18 -6.31,-4.66 -12.84,-9.03 -20.28,-12.2 5.08,6.3 11.06,11.38 17.27,16.18 6.32,4.66 12.85,9.02 20.29,12.2"
         style="fill:#ffffff;fill-opacity:1;fill-rule:nonzero;stroke:none"
         id="path182" /><path
         d="m 1147.09,3018.07 c -5.08,-6.28 -11.07,-11.37 -17.27,-16.18 -6.31,-4.66 -12.84,-9.03 -20.28,-12.2 5.07,6.3 11.06,11.38 17.27,16.18 6.32,4.65 12.85,9.02 20.28,12.2"
         style="fill:#ffffff;fill-opacity:1;fill-rule:nonzero;stroke:none"
         id="path184" /><path
         d="m 1531.55,2936.19 c -5.08,-6.28 -11.07,-11.37 -17.27,-16.18 -6.31,-4.65 -12.84,-9.02 -20.28,-12.19 5.08,6.29 11.06,11.38 17.27,16.18 6.32,4.65 12.85,9.02 20.28,12.19"
         style="fill:#ffffff;fill-opacity:1;fill-rule:nonzero;stroke:none"
         id="path186" /><path
         d="m 1282.57,2779.41 c -5.08,-6.28 -11.07,-11.37 -17.27,-16.18 -6.31,-4.66 -12.84,-9.03 -20.28,-12.19 5.08,6.29 11.06,11.38 17.27,16.18 6.32,4.65 12.85,9.02 20.28,12.19"
         style="fill:#ffffff;fill-opacity:1;fill-rule:nonzero;stroke:none"
         id="path188" /><path
         d="m 1626.96,3150.45 c -5.08,-6.28 -11.07,-11.37 -17.27,-16.18 -6.31,-4.66 -12.84,-9.03 -20.29,-12.2 5.08,6.3 11.07,11.39 17.28,16.19 6.32,4.65 12.85,9.01 20.28,12.19"
         style="fill:#ffffff;fill-opacity:1;fill-rule:nonzero;stroke:none"
         id="path190" /><path
         d="m 1621.75,2968.72 c -6.28,5.08 -11.37,11.07 -16.18,17.27 -4.66,6.31 -9.03,12.84 -12.2,20.28 6.3,-5.07 11.39,-11.07 16.19,-17.27 4.64,-6.32 9.01,-12.85 12.19,-20.28"
         style="fill:#ffffff;fill-opacity:1;fill-rule:nonzero;stroke:none"
         id="path192" /><path
         d="m 1066.82,2843.57 c -6.29,5.09 -11.38,11.07 -16.19,17.27 -4.66,6.31 -9.03,12.85 -12.19,20.29 6.29,-5.08 11.38,-11.07 16.18,-17.28 4.65,-6.32 9.02,-12.85 12.2,-20.28"
         style="fill:#ffffff;fill-opacity:1;fill-rule:nonzero;stroke:none"
         id="path194" /><path
         d="m 1554.3,2694.59 c -6.28,5.09 -11.37,11.07 -16.18,17.27 -4.66,6.31 -9.03,12.85 -12.2,20.29 6.3,-5.08 11.38,-11.07 16.18,-17.28 4.65,-6.32 9.02,-12.85 12.2,-20.28"
         style="fill:#ffffff;fill-opacity:1;fill-rule:nonzero;stroke:none"
         id="path196" /><path
         d="m 1310,3119.11 c -6.29,5.09 -11.38,11.07 -16.19,17.28 -4.65,6.31 -9.02,12.84 -12.19,20.28 6.29,-5.08 11.38,-11.07 16.18,-17.28 4.65,-6.31 9.02,-12.85 12.2,-20.28"
         style="fill:#ffffff;fill-opacity:1;fill-rule:nonzero;stroke:none"
         id="path198" /><path
         d="m 1314.31,2609.82 c -6.29,5.09 -11.38,11.07 -16.18,17.27 -4.66,6.32 -9.03,12.85 -12.2,20.29 6.29,-5.08 11.38,-11.07 16.18,-17.27 4.65,-6.33 9.02,-12.85 12.2,-20.29"
         style="fill:#ffffff;fill-opacity:1;fill-rule:nonzero;stroke:none"
         id="path200" /><path
         d="m 1355.84,2910.25 c -6.28,5.09 -11.37,11.07 -16.18,17.27 -4.66,6.32 -9.03,12.85 -12.19,20.29 6.29,-5.08 11.38,-11.07 16.18,-17.27 4.65,-6.33 9.02,-12.86 12.19,-20.29"
         style="fill:#ffffff;fill-opacity:1;fill-rule:nonzero;stroke:none"
         id="path202" /><path
         d="m 1561.06,3159.65 c -37.62,7.01 -73.1,84.9 -77.55,137.29 -0.29,3.6 17.61,32.13 37.73,67.83 12.12,21.7 25.11,46.16 35.35,69.34 2.07,4.77 14.41,-11.13 14.41,-11.13 l 26.79,-20.5 88.55,-67.9 c 0,0 -35.75,-42.27 -53.36,-82.78 -1.43,-3.4 -2.48,-6.69 -3.2,-9.95 l -0.48,-1.67 c -5.04,-19.36 -31.86,-87.26 -68.24,-80.53"
         style="fill:#f57a76;fill-opacity:1;fill-rule:nonzero;stroke:none"
         id="path204" /><path
         d="m 1629.78,3241.85 -0.48,-1.67 c -4.84,1.37 -9.91,3.28 -15.3,5.81 -96.9,45.42 -54.15,175.26 -54.15,175.26 l 37.94,-18.77 88.55,-67.9 c 0,0 -35.75,-42.27 -53.36,-82.78 -1.43,-3.4 -2.48,-6.69 -3.2,-9.95"
         style="fill:#17282f;fill-opacity:1;fill-rule:nonzero;stroke:none"
         id="path206" /><path
         d="m 1787.98,3611.32 c 0,0 44.27,-28.11 44.56,-78.1 0.29,-49.99 -19.62,-98.89 -24.24,-100.64 -4.63,-1.76 -20.32,178.74 -20.32,178.74"
         style="fill:#17282f;fill-opacity:1;fill-rule:nonzero;stroke:none"
         id="path208" /><path
         d="m 1568.23,3585.39 c -26.62,-52.56 -25.28,-218.02 7.97,-260.66 48.19,-61.8 141.03,-83.1 197.06,-21.98 54.32,59.23 48.75,274.83 10.32,315.01 -56.6,59.18 -176.03,45.25 -215.35,-32.37"
         style="fill:#f57a76;fill-opacity:1;fill-rule:nonzero;stroke:none"
         id="path210" /><path
         d="m 1572.5,3326.99 v 0.06 -0.06"
         style="fill:#f68b94;fill-opacity:1;fill-rule:nonzero;stroke:none"
         id="path212" /><path
         d="m 1709.41,3452.82 -0.84,-1.02 c 0.62,-11.26 -0.57,-24.27 -10.68,-28.25 l 0.1,-0.62 c 12.42,2.03 13.82,19.32 11.42,29.89"
         style="fill:#17282f;fill-opacity:1;fill-rule:nonzero;stroke:none"
         id="path214" /><path
         d="m 1699.07,3464.36 c -18.17,0.96 -18.74,-35.45 -1.91,-36.33 16.57,-0.87 17.14,35.53 1.91,36.33"
         style="fill:#17282f;fill-opacity:1;fill-rule:nonzero;stroke:none"
         id="path216" /><path
         d="m 1771.12,3453.24 0.85,-1.01 c -0.53,-11.27 0.74,-24.27 10.89,-28.18 l -0.11,-0.63 c -12.41,1.96 -13.95,19.22 -11.63,29.82"
         style="fill:#17282f;fill-opacity:1;fill-rule:nonzero;stroke:none"
         id="path218" /><path
         d="m 1781.38,3464.86 c 18.16,1.09 19,-35.31 2.17,-36.32 -16.55,-1 -17.4,35.41 -2.17,36.32"
         style="fill:#17282f;fill-opacity:1;fill-rule:nonzero;stroke:none"
         id="path220" /><path
         d="m 1687.67,3492.07 c 4.97,1.18 9.37,3.09 14.18,4.75 5.42,1.88 9.93,2.82 13.53,7.59 1.93,2.56 1.22,7.23 -1.09,9.34 -5.38,4.92 -12.59,4.27 -19.21,2.27 -7.18,-2.16 -12.16,-5.67 -16.35,-11.87 -4.07,-6.01 2.37,-13.61 8.94,-12.08"
         style="fill:#17282f;fill-opacity:1;fill-rule:nonzero;stroke:none"
         id="path222" /><path
         d="m 1794,3475.94 c -5.04,0.9 -9.53,2.58 -14.41,3.99 -5.51,1.58 -10.07,2.28 -13.92,6.86 -2.07,2.46 -1.61,7.15 0.59,9.39 5.12,5.2 12.35,4.92 19.06,3.28 7.29,-1.78 12.45,-5.02 16.97,-10.99 4.37,-5.79 -1.65,-13.72 -8.29,-12.53"
         style="fill:#17282f;fill-opacity:1;fill-rule:nonzero;stroke:none"
         id="path224" /><path
         d="m 1683.74,3345.96 c 2.66,-2.68 5.3,-6.35 9.38,-6.76 3.92,-0.4 8.55,1.3 12.17,2.64 l 0.48,-0.59 c -3,-4.28 -9.2,-6.89 -14.41,-5.89 -5.1,0.97 -7.55,5.42 -8.71,10.11 l 1.09,0.49"
         style="fill:#17282f;fill-opacity:1;fill-rule:nonzero;stroke:none"
         id="path226" /><path
         d="m 1749.23,3394.18 c 0,0 0.48,-16.88 -0.37,-24.72 -0.09,-0.73 -22.2,3.59 -46.04,-1.65 -3.57,-0.78 -3.23,2.12 0.91,4.02 8.25,3.8 18.73,7.38 39.13,5.19 0.79,2.11 -1.22,25.97 0.04,25.93 4.32,-0.1 12.45,-3.95 17.36,-5.98 0.03,35.18 -5.59,70.09 -5.05,105.13 0.04,1.25 1.86,1.42 2.1,0.28 8.49,-36.17 9.35,-76.66 10.26,-113 0.16,-4.53 -15.34,3.12 -18.34,4.8"
         style="fill:#17282f;fill-opacity:1;fill-rule:nonzero;stroke:none"
         id="path228" /><path
         d="m 1726.74,3375.46 c 0,0 -7.86,-19.78 -21.01,-25.09 -15.11,-6.12 -20.3,7.56 -4.87,19.66 8.1,6.34 25.88,5.43 25.88,5.43"
         style="fill:#17282f;fill-opacity:1;fill-rule:nonzero;stroke:none"
         id="path230" /><path
         d="m 1710.99,3353.45 c -1.7,-1.3 -3.4,-2.4 -5.3,-3.1 -13.9,-5.6 -19.4,5.5 -8.19,16.7 7.59,-0.6 15.89,-3.4 13.49,-13.6"
         style="fill:#f577b8;fill-opacity:1;fill-rule:nonzero;stroke:none"
         id="path232" /><path
         d="m 1560.58,3443.83 c 18.28,-5.61 39.32,49.37 45.27,70.51 5.24,18.64 11.28,77.74 12.18,81.77 0.89,4.03 79.72,-52.3 125.81,-38.83 46.09,13.47 76.89,54.83 77.52,74.13 0.64,19.31 -56.59,68.32 -106.11,70.82 -49.52,2.51 -116.54,-60.43 -116.54,-60.43 0,0 22.76,27.2 21.99,29.43 -0.77,2.23 -32.77,-10.56 -38.65,-33.34 0,0 6.33,28.61 3.91,29.14 -2.42,0.53 -27.28,-23.98 -21.67,-42.54 0,0 -28.76,-24.92 -31.42,-52.22 -2.66,-27.31 6.23,-121.85 27.71,-128.44"
         style="fill:#17282f;fill-opacity:1;fill-rule:nonzero;stroke:none"
         id="path234" /><path
         d="m 1776.59,3566.91 c -14.01,-6.45 -28.05,-13.53 -43.54,-15.58 -16.74,-2.21 -34.11,1.99 -49.69,7.97 -15.94,6.1 -30.43,14.95 -43.58,25.79 -11.53,9.49 -21.76,20.94 -34.06,29.39 -3.08,2.12 -6.65,-2.32 -4.75,-5.15 18.69,-28.04 51.75,-51.45 83.62,-61.56 33.54,-10.63 65.06,-3.15 92.17,18.78 l -0.17,0.36"
         style="fill:#17282f;fill-opacity:1;fill-rule:nonzero;stroke:none"
         id="path236" /><path
         d="m 1579.71,3448.73 c 0,0 -28.37,57.62 -53.97,48.27 -25.61,-9.34 -9.85,-88.95 16.28,-103.54 26.12,-14.57 40.09,9.35 40.09,9.35 l -2.4,45.92"
         style="fill:#f57a76;fill-opacity:1;fill-rule:nonzero;stroke:none"
         id="path238" /><path
         d="m 1530.82,3474.29 -0.26,-0.72 c 18.22,-10.86 25.68,-30.45 29.97,-50.23 -4.68,8.08 -11.94,13.23 -22.63,7.83 l 0.37,-1.12 c 8.22,0.48 13.75,-1.78 18.15,-8.98 3.11,-5.11 4.83,-11.21 6.76,-16.84 0.64,-1.88 3.92,-1.43 3.57,0.67 l -0.09,0.48 c 4.3,24.69 -9.62,62.33 -35.84,68.91"
         style="fill:#17282f;fill-opacity:1;fill-rule:nonzero;stroke:none"
         id="path240" /><path
         d="m 1392.19,3191.56 c -19.55,-113.28 102.76,-495 181.51,-566.3 117.11,-106.03 333.64,-175.75 412.1,-198.43 34.19,-9.89 128.8,230.74 94.2,246.59 -74.09,33.94 -304.29,105.74 -325.96,124.18 -21.67,18.43 -153.95,208.75 -212.76,318.52 -78.89,147.27 -139.2,132.74 -149.09,75.44"
         style="fill:#f57a76;fill-opacity:1;fill-rule:nonzero;stroke:none"
         id="path242" /><path
         d="m 2021.75,2694.59 c 0,0 102.1,-26.02 168.08,-46.18 36.81,-11.24 98.19,-36.15 121.45,-56.78 34.79,-30.86 160.6,-182.13 124.58,-213.43 -32.6,-28.32 -124.19,115.36 -124.19,115.36 0,0 105.23,-136.82 59.7,-163.71 -45.53,-26.89 -127.41,149.22 -127.41,149.22 0,0 104.96,-143.01 53.62,-163.3 -38.8,-15.35 -121.95,139.98 -121.95,139.98 0,0 89.37,-123.54 50.15,-141.04 -43.34,-19.33 -129.09,119.22 -129.09,119.22 -107.18,-27.69 -169.55,2.97 -211.31,30.06 -10.11,6.56 136.37,230.6 136.37,230.6"
         style="fill:#f57a76;fill-opacity:1;fill-rule:nonzero;stroke:none"
         id="path244" /><path
         d="m 2278.31,2543.22 c 12.94,-15.62 26.15,-31.36 37.66,-48.07 11.51,-16.73 22.44,-33.86 32.35,-51.58 24.28,-43.46 32.69,-74.47 31.96,-72.61 -17.22,43.96 -57.5,104.46 -69.01,121.19 -11.48,16.68 -22.13,33.95 -33.61,50.65 l 0.65,0.42"
         style="fill:#17282f;fill-opacity:1;fill-rule:nonzero;stroke:none"
         id="path246" /><path
         d="m 2217.17,2502.76 c 22.18,-17.58 68.72,-83.05 86.66,-126.91 0.75,-1.84 -0.24,-1.7 -1.33,-0.02 -14.05,21.67 -70.82,105.7 -85.85,126.59 l 0.52,0.34"
         style="fill:#17282f;fill-opacity:1;fill-rule:nonzero;stroke:none"
         id="path248" /><path
         d="m 2158.46,2477.46 c 25.68,-25.41 47.24,-60.12 64.2,-100.22 0.76,-1.82 -0.69,-1.54 -1.74,0.18 -20.71,33.72 -36.73,60.32 -63.52,99.16 l 1.06,0.88"
         style="fill:#17282f;fill-opacity:1;fill-rule:nonzero;stroke:none"
         id="path250" /><path
         d="m 1503.49,3183.22 c -91.31,129.14 -145.87,81.27 -127.56,-58.9 17.12,-131.09 63.07,-287.26 63.07,-287.26 l 230.41,111.6 c 0,0 -107.49,151.92 -165.92,234.56"
         style="fill:#fabb1e;fill-opacity:1;fill-rule:nonzero;stroke:none"
         id="path252" /><path
         d="m 1559.29,3132.45 c 3.26,-7.39 5.05,-15.05 6.49,-22.76 1.25,-7.74 2.15,-15.55 1.56,-23.62 -3.27,7.4 -5.05,15.05 -6.49,22.77 -1.24,7.74 -2.13,15.55 -1.56,23.61"
         style="fill:#ffffff;fill-opacity:1;fill-rule:nonzero;stroke:none"
         id="path254" /><path
         d="m 1422.96,3053.94 c 7.4,3.26 15.05,5.04 22.76,6.49 7.75,1.25 15.55,2.15 23.62,1.56 -7.4,-3.28 -15.05,-5.06 -22.77,-6.49 -7.74,-1.24 -15.55,-2.14 -23.61,-1.56"
         style="fill:#ffffff;fill-opacity:1;fill-rule:nonzero;stroke:none"
         id="path256" /><path
         d="m 1428.9,3254.75 c -2.93,-7.54 -7.08,-14.21 -11.51,-20.68 -4.59,-6.36 -9.48,-12.52 -15.6,-17.8 2.92,7.54 7.07,14.21 11.51,20.68 4.6,6.35 9.49,12.51 15.6,17.8"
         style="fill:#ffffff;fill-opacity:1;fill-rule:nonzero;stroke:none"
         id="path258" /><path
         d="m 1623.32,2993.63 c -2.93,-7.54 -7.08,-14.21 -11.52,-20.68 -4.59,-6.36 -9.47,-12.52 -15.59,-17.8 2.92,7.53 7.07,14.21 11.51,20.67 4.6,6.36 9.49,12.51 15.6,17.81"
         style="fill:#ffffff;fill-opacity:1;fill-rule:nonzero;stroke:none"
         id="path260" /><path
         d="m 1463.9,2915.3 c -7.53,2.93 -14.21,7.07 -20.68,11.51 -6.36,4.59 -12.52,9.47 -17.8,15.59 7.54,-2.91 14.21,-7.06 20.68,-11.51 6.36,-4.6 12.51,-9.48 17.8,-15.59"
         style="fill:#ffffff;fill-opacity:1;fill-rule:nonzero;stroke:none"
         id="path262" /><path
         d="m 1534.12,3144.36 c 12.26,-16.87 24.96,-33.41 37.62,-49.98 -3.21,8.38 -5.99,16.84 -8.47,25.49 l 0.61,0.2 c 2.56,-6.64 5.4,-13.17 7.85,-19.85 1.18,-3.2 2.38,-6.4 3.61,-9.59 l 0.81,-2.05 c 9.85,-12.93 19.66,-25.89 29.14,-39.09 11.31,-15.74 22.23,-31.77 33.2,-47.76 11.33,-16.52 22.08,-35.89 34.05,-51.95 1.04,-1.39 -20.39,-10.04 -22.39,-11.16 -2.05,-1.14 -3.44,0.85 -1.26,1.51 2,0.61 18.98,11.04 19.19,11.25 -10.96,16.12 -23.7,31.03 -35.18,46.79 -11.42,15.69 -22.89,31.34 -33.96,47.28 -22.5,32.35 -43.17,65.98 -65.49,98.48 l 0.67,0.43"
         style="fill:#17282f;fill-opacity:1;fill-rule:nonzero;stroke:none"
         id="path264" /><path
         d="m 1381.6,3031.59 c 3.5,-6.82 7.27,-13.57 10.37,-20.59 1.28,-2.89 2.54,-5.8 3.83,-8.7 -5.26,24.97 -10.4,49.95 -15.52,74.94 l 0.46,0.15 c 10.55,-40.48 21.22,-80.91 31.03,-121.57 9.35,-38.76 20.64,-78 25.99,-117.55 3.19,1.05 21.12,8.47 21.64,7.31 0.52,-1.17 -23.45,-12.45 -23.77,-11.5 -13.04,38.64 -21.11,82.55 -29.99,122.33 -2.5,11.2 -4.83,22.43 -7.22,33.65 -2.59,6.76 -5.75,13.27 -8.82,19.84 -3.26,6.95 -5.87,14.22 -8.72,21.35 l 0.72,0.34"
         style="fill:#17282f;fill-opacity:1;fill-rule:nonzero;stroke:none"
         id="path266" /><path
         d="m 1442.65,2875.6 c 32.01,18.06 165.74,87.28 195.67,100.33 2.08,0.91 3.16,-0.15 1.13,-1.37 -94.6,-56.36 -163.71,-84.02 -196.03,-100.17 l -0.77,1.21"
         style="fill:#17282f;fill-opacity:1;fill-rule:nonzero;stroke:none"
         id="path268" /><path
         d="M 5106.97,246.629 H 2060.19 L 2500.74,2745.14 H 5547.52 L 5106.97,246.629"
         style="fill:#fabb1e;fill-opacity:1;fill-rule:nonzero;stroke:none"
         id="path270" /><path
         d="m 3543.5,3003.89 h -997.14 l -45.62,-258.75 h 1067.11 l -24.35,258.75"
         style="fill:#fabb1e;fill-opacity:1;fill-rule:nonzero;stroke:none"
         id="path272" /><path
         d="M 5106.97,246.629 H 2060.19 L 2500.74,2745.14 H 5547.52 L 5501.59,2484.63 5398.9,1902.27 5106.97,246.629"
         style="fill:#f4ac12;fill-opacity:1;fill-rule:nonzero;stroke:none"
         id="path274" /><path
         d="M 3567.85,2745.14 H 2500.74 l 45.62,258.75 h 997.14 l 24.35,-258.75"
         style="fill:#f4ac12;fill-opacity:1;fill-rule:nonzero;stroke:none"
         id="path276" /><path
         d="m 2438.77,2898.33 c -3.95,14.51 -4.83,29.01 -5,43.52 0.15,14.5 1.03,29 5,43.51 3.96,-14.51 4.85,-29.01 4.99,-43.51 -0.17,-14.51 -1.05,-29.01 -4.99,-43.52"
         style="fill:#17282f;fill-opacity:1;fill-rule:nonzero;stroke:none"
         id="path278" /><path
         d="m 2350.16,2872.71 c -10.67,10.59 -18.69,22.71 -26.08,35.18 -7.13,12.64 -13.61,25.64 -17.43,40.19 10.68,-10.58 18.7,-22.7 26.08,-35.19 7.11,-12.64 13.59,-25.64 17.43,-40.18"
         style="fill:#17282f;fill-opacity:1;fill-rule:nonzero;stroke:none"
         id="path280" /><path
         d="m 2286.24,2806.22 c -14.54,3.83 -27.54,10.32 -40.19,17.42 -12.48,7.38 -24.6,15.4 -35.18,26.09 14.55,-3.82 27.55,-10.31 40.18,-17.43 12.48,-7.4 24.6,-15.42 35.19,-26.08"
         style="fill:#17282f;fill-opacity:1;fill-rule:nonzero;stroke:none"
         id="path282" /><path
         d="m 2264.13,2716.67 c -14.51,-3.95 -29.01,-4.83 -43.51,-5 -14.51,0.15 -29.01,1.03 -43.52,5 14.51,3.96 29.01,4.85 43.52,4.99 14.5,-0.16 29,-1.05 43.51,-4.99"
         style="fill:#17282f;fill-opacity:1;fill-rule:nonzero;stroke:none"
         id="path284" /><path
         d="m 2289.75,2628.06 c -10.59,-10.67 -22.71,-18.69 -35.18,-26.08 -12.64,-7.13 -25.64,-13.61 -40.19,-17.43 10.58,10.68 22.7,18.71 35.19,26.08 12.64,7.11 25.64,13.59 40.18,17.43"
         style="fill:#17282f;fill-opacity:1;fill-rule:nonzero;stroke:none"
         id="path286" /><path
         d="m 2356.25,2564.14 c -3.84,-14.54 -10.33,-27.54 -17.43,-40.19 -7.38,-12.48 -15.4,-24.6 -26.09,-35.18 3.82,14.54 10.31,27.55 17.43,40.18 7.4,12.48 15.42,24.6 26.09,35.19"
         style="fill:#17282f;fill-opacity:1;fill-rule:nonzero;stroke:none"
         id="path288" /><path
         d="m 2445.79,2542.03 c 3.95,-14.51 4.83,-29.01 5,-43.51 -0.15,-14.51 -1.03,-29.01 -5,-43.52 -3.96,14.51 -4.85,29.01 -4.99,43.52 0.16,14.5 1.05,29 4.99,43.51"
         style="fill:#17282f;fill-opacity:1;fill-rule:nonzero;stroke:none"
         id="path290" /><path
         d="m 2534.4,2567.65 c 10.67,-10.59 18.69,-22.71 26.08,-35.18 7.13,-12.64 13.61,-25.64 17.43,-40.19 -10.68,10.58 -18.7,22.7 -26.08,35.19 -7.11,12.64 -13.59,25.65 -17.43,40.18"
         style="fill:#17282f;fill-opacity:1;fill-rule:nonzero;stroke:none"
         id="path292" /><path
         d="m 2598.32,2634.14 c 14.54,-3.83 27.54,-10.32 40.19,-17.42 12.48,-7.38 24.6,-15.4 35.18,-26.09 -14.54,3.82 -27.55,10.31 -40.18,17.43 -12.48,7.4 -24.6,15.42 -35.19,26.08"
         style="fill:#17282f;fill-opacity:1;fill-rule:nonzero;stroke:none"
         id="path294" /><path
         d="m 2620.43,2723.69 c 14.51,3.95 29.01,4.83 43.52,5 14.5,-0.15 29,-1.03 43.51,-5 -14.51,-3.96 -29.01,-4.85 -43.51,-4.99 -14.51,0.17 -29.01,1.05 -43.52,4.99"
         style="fill:#17282f;fill-opacity:1;fill-rule:nonzero;stroke:none"
         id="path296" /><path
         d="m 2594.81,2812.3 c 10.59,10.67 22.71,18.69 35.19,26.08 12.63,7.13 25.63,13.61 40.18,17.43 -10.58,-10.68 -22.7,-18.7 -35.19,-26.08 -12.64,-7.11 -25.65,-13.59 -40.18,-17.43"
         style="fill:#17282f;fill-opacity:1;fill-rule:nonzero;stroke:none"
         id="path298" /><path
         d="m 2528.32,2876.23 c 3.83,14.53 10.32,27.53 17.42,40.18 7.39,12.48 15.4,24.6 26.09,35.18 -3.82,-14.54 -10.31,-27.55 -17.43,-40.18 -7.4,-12.48 -15.42,-24.6 -26.08,-35.18"
         style="fill:#17282f;fill-opacity:1;fill-rule:nonzero;stroke:none"
         id="path300" /><path
         d="M 5102.5,246.629 H 2049.15 L 1615.63,2654.43 H 4668.99 L 5102.5,246.629"
         style="fill:#fabb1e;fill-opacity:1;fill-rule:nonzero;stroke:none"
         id="path302" /><path
         d="m 2800.6,1309.43 c 0,-70.09 -56.82,-126.91 -126.91,-126.91 -70.09,0 -126.91,56.82 -126.91,126.91 0,70.09 56.82,126.91 126.91,126.91 70.09,0 126.91,-56.82 126.91,-126.91"
         style="fill:#17282f;fill-opacity:1;fill-rule:nonzero;stroke:none"
         id="path304" /><path
         d="m 3803.86,1309.43 c 0,-70.09 -56.83,-126.91 -126.92,-126.91 -70.08,0 -126.91,56.82 -126.91,126.91 0,70.09 56.83,126.91 126.91,126.91 70.09,0 126.92,-56.82 126.92,-126.91"
         style="fill:#17282f;fill-opacity:1;fill-rule:nonzero;stroke:none"
         id="path306" /><path
         d="m 3357.6,1162.26 -6.97,13.29 c -0.63,1.2 -66.19,122.38 -198.11,122.38 -120.31,0 -149.64,-114.1 -150.83,-118.96 l -3.56,-14.54 -29.1,7.03 3.5,14.56 c 0.34,1.41 35.75,141.91 179.99,141.91 150.37,0 221.72,-132.8 224.68,-138.46 l 6.97,-13.28 -26.57,-13.93"
         style="fill:#17282f;fill-opacity:1;fill-rule:nonzero;stroke:none"
         id="path308" /><path
         d="m 4900.91,1319.11 c 6.58,1.41 13.14,2.95 19.66,4.62 l -2.47,9.69 c -6.41,-1.64 -12.84,-3.16 -19.28,-4.54 l 2.09,-9.78"
         style="fill:#17282f;fill-opacity:1;fill-rule:nonzero;stroke:none"
         id="path310" /><path
         d="m 4959.32,1335.21 c 12.79,4.32 25.4,9.11 37.79,14.35 l -3.9,9.21 c -12.16,-5.14 -24.54,-9.84 -37.09,-14.08 z m 74.41,31.48 c 12.05,6.2 23.81,12.82 35.24,19.85 l -5.24,8.52 c -11.21,-6.89 -22.75,-13.4 -34.57,-19.48 z m 68.81,42.39 c 10.97,8.02 21.53,16.44 31.62,25.23 l -6.57,7.54 c -9.87,-8.59 -20.2,-16.84 -30.95,-24.7 z m 60.92,53.17 c 9.42,9.87 18.28,20.11 26.49,30.67 l -7.89,6.14 c -8,-10.29 -16.63,-20.27 -25.83,-29.9 z m 49.59,64.03 c 7.13,11.67 13.49,23.67 19,35.95 l -9.12,4.1 c -5.33,-11.88 -11.49,-23.51 -18.41,-34.84 z m 33.09,74.14 c 3.78,13.04 6.6,26.34 8.39,39.84 l -9.92,1.31 c -1.71,-12.99 -4.43,-25.79 -8.08,-38.37 z m 11.02,80.38 c 0.01,0.97 0.01,1.94 0.01,2.91 0,12.73 -0.66,25.23 -1.93,37.53 l -9.95,-1.03 c 1.24,-11.96 1.88,-24.12 1.88,-36.5 0,-0.94 0,-1.88 -0.01,-2.83 z m -8.23,80.41 c -2.81,13.26 -6.29,26.29 -10.35,39.12 l -9.54,-3.02 c 3.97,-12.54 7.37,-25.25 10.11,-38.17 z m -24.19,77.06 c -5.1,12.4 -10.69,24.63 -16.68,36.74 l -8.96,-4.43 c 5.9,-11.93 11.39,-23.95 16.4,-36.11 z m -35.56,72.34 c -6.56,11.62 -13.42,23.14 -20.52,34.61 l -8.5,-5.26 c 7.03,-11.37 13.83,-22.78 20.31,-34.27 z m -42.15,68.48 c -7.31,11.13 -14.77,22.24 -22.31,33.35 l -8.27,-5.62 c 7.52,-11.08 14.95,-22.15 22.22,-33.22 z m -44.87,66.41 c -7.52,10.99 -15.04,22 -22.5,33.07 l -8.29,-5.59 c 7.48,-11.1 15.02,-22.13 22.53,-33.12 z m -44.56,66.38 c -7.24,11.16 -14.35,22.4 -21.27,33.75 l -8.54,-5.2 c 6.98,-11.45 14.14,-22.77 21.42,-34 z m -41.37,68.15 c -6.46,11.59 -12.66,23.31 -18.54,35.19 l -8.96,-4.43 c 5.95,-12.05 12.23,-23.92 18.76,-35.63 z m -35.09,71.26 c -5.12,12.14 -9.86,24.46 -14.14,36.99 l -9.47,-3.24 c 4.37,-12.77 9.19,-25.3 14.4,-37.64 z m -25.51,74.91 c -3.26,12.65 -6.03,25.53 -8.25,38.67 l -9.86,-1.67 c 2.27,-13.42 5.1,-26.58 8.42,-39.49 z m -13.14,77.88 c -0.95,11.89 -1.45,24 -1.45,36.33 0,1.07 0,2.14 0.01,3.2 l -10,0.07 c -0.01,-1.09 -0.01,-2.18 -0.01,-3.27 0,-12.6 0.51,-24.97 1.49,-37.13 z m 0.52,79.09 c 0.25,2.74 0.53,5.49 0.83,8.26 1.16,10.63 2.63,20.95 4.39,30.96 l -9.84,1.74 c -1.81,-10.23 -3.31,-20.77 -4.49,-31.62 -0.31,-2.82 -0.59,-5.63 -0.85,-8.43 z m 13.87,77.77 c 3.6,13.08 7.75,25.55 12.4,37.45 l -9.31,3.64 c -4.79,-12.23 -9.04,-25.03 -12.73,-38.44 z m 28.78,73.29 c 6.29,11.87 13.12,23.07 20.46,33.64 l -8.21,5.7 c -7.57,-10.89 -14.62,-22.44 -21.09,-34.67 z m 44.86,64.52 c 8.87,9.91 18.23,19.12 28.01,27.68 l -6.58,7.52 c -10.08,-8.81 -19.73,-18.31 -28.88,-28.53 z m 59.17,51.85 c 10.9,7.5 22.17,14.33 33.71,20.55 l -4.74,8.8 c -11.84,-6.37 -23.42,-13.4 -34.64,-21.11 z m 69.43,37.5 c 12.24,5.09 24.67,9.57 37.21,13.48 l -2.98,9.55 c -12.82,-4 -25.54,-8.59 -38.07,-13.8 z m 75.49,23.68 c 13.03,2.89 26.07,5.24 39.02,7.07 l -1.4,9.9 c -13.2,-1.87 -26.5,-4.26 -39.79,-7.21 z m 78.48,11.14 c 11.91,0.79 23.66,1.16 35.14,1.16 1.51,0 3.02,-0.01 4.52,-0.02 l 0.09,10 c -1.53,0.01 -3.07,0.02 -4.61,0.02 -11.7,0 -23.66,-0.38 -35.8,-1.18 z m 79.26,-0.72 c 13.77,-1.19 26.92,-2.91 39.26,-5.09 l 1.73,9.85 c -12.64,2.23 -26.08,3.99 -40.13,5.21 z m 77.66,-14.05 c 2.25,-0.67 4.44,-1.36 6.59,-2.07 11,-3.62 20.93,-7.72 29.82,-12.19 l 4.5,8.93 c -9.38,4.72 -19.76,9 -31.19,12.76 -2.24,0.73 -4.52,1.45 -6.85,2.15 z m 68.58,-35.63 c 10.62,-9.4 18.29,-19.5 23.33,-29.78 l 8.98,4.41 c -5.67,11.55 -14.18,22.68 -25.68,32.86 z m 30.81,-66.01 c -0.81,-12.32 -4.96,-24.22 -12.15,-34.89 l 8.3,-5.59 c 8.12,12.05 12.91,25.68 13.83,39.83 z m -39.58,-60.55 c -10.13,-6.14 -22.05,-10.91 -35.59,-13.79 l 2.08,-9.78 c 14.57,3.1 27.55,8.26 38.7,15.01 z m -74.12,-16.7 c -5.26,0.25 -10.67,0.75 -16.22,1.51 -7.64,1.05 -15.2,2.32 -22.65,3.81 l -1.97,-9.81 c 7.66,-1.53 15.42,-2.83 23.26,-3.91 5.84,-0.8 11.55,-1.32 17.11,-1.59 z m -77.1,15.13 c -12.65,3.98 -24.97,8.63 -36.94,13.91 l -4.03,-9.15 c 12.3,-5.43 24.96,-10.2 37.96,-14.3 z m -72.11,31.8 c -11.39,6.62 -22.39,13.86 -32.96,21.68 l -5.95,-8.04 c 10.87,-8.04 22.17,-15.48 33.89,-22.28 z m -63.35,46.83 c -9.63,8.91 -18.8,18.35 -27.48,28.3 l -7.54,-6.57 c 8.92,-10.22 18.34,-19.92 28.24,-29.07 z m -51.85,59.38 c -7.52,10.7 -14.54,21.85 -21.04,33.43 l -8.72,-4.89 c 6.66,-11.87 13.86,-23.32 21.58,-34.3 z m -38.64,68.81 c -5.23,11.96 -9.95,24.28 -14.11,36.94 l -9.5,-3.13 c 4.26,-12.95 9.09,-25.57 14.45,-37.82 z m -24.73,75.04 c -2.92,12.7 -5.32,25.69 -7.17,38.92 l -9.91,-1.38 c 1.89,-13.52 4.34,-26.79 7.34,-39.78 z m -10.99,78.34 c -0.48,8.86 -0.73,17.83 -0.73,26.88 0,4.23 0.05,8.47 0.16,12.73 l -9.99,0.26 c -0.12,-4.35 -0.17,-8.68 -0.17,-12.99 0,-9.24 0.25,-18.38 0.75,-27.43 z m 1.96,79.17 c 1.32,12.95 3.14,26.05 5.47,39.28 l -9.85,1.74 c -2.37,-13.47 -4.22,-26.81 -5.57,-40.01 z m 13.7,78.1 c 3.14,12.64 6.74,25.38 10.82,38.2 l -9.53,3.04 c -4.15,-13.03 -7.81,-25.97 -10.99,-38.83 z m 24.04,75.66 c 4.87,12.54 10.14,24.65 15.77,36.34 l -9.02,4.33 c -5.73,-11.92 -11.1,-24.26 -16.07,-37.05 z m 34.33,71.33 c 6.76,11.6 13.86,22.74 21.27,33.42 l -8.22,5.7 c -7.55,-10.9 -14.8,-22.26 -21.69,-34.09 z m 45.09,65.1 c 8.47,10.4 17.22,20.32 26.18,29.78 l -7.26,6.88 c -9.13,-9.64 -18.04,-19.75 -26.67,-30.35 z m 54.48,57.57 c 9.93,9.08 20.02,17.66 30.2,25.75 l -6.22,7.83 c -10.35,-8.24 -20.62,-16.96 -30.73,-26.2 z m 62.08,49.45 c 11.13,7.73 22.27,14.94 33.32,21.65 l -5.19,8.54 c -11.21,-6.8 -22.53,-14.12 -33.84,-21.98 z m 67.9,41.27 c 12.19,6.46 24.13,12.31 35.66,17.62 l -4.18,9.08 c -11.69,-5.37 -23.79,-11.31 -36.16,-17.87 z m 72.25,33.24 c 13.53,5.34 26.1,9.83 37.41,13.58 l -3.14,9.49 c -11.48,-3.8 -24.23,-8.36 -37.94,-13.77 l 3.67,-9.3"
         style="fill:#17282f;fill-opacity:1;fill-rule:nonzero;stroke:none"
         id="path312" /><path
         d="m 5570.2,3580.9 c 6.13,1.58 10.93,2.7 14.19,3.42 1.63,0.36 2.87,0.61 3.7,0.78 l 1.22,0.24 -1.84,9.83 c -0.1,-0.02 -7.26,-1.36 -19.76,-4.58 l 2.49,-9.69"
         style="fill:#17282f;fill-opacity:1;fill-rule:nonzero;stroke:none"
         id="path314" /><path
         d="m 5746.99,3645.5 c -25.53,79.04 -196.32,50.64 -162.98,-52.62 33.35,-103.27 188.5,-26.42 162.98,52.62"
         style="fill:#17282f;fill-opacity:1;fill-rule:nonzero;stroke:none"
         id="path316" /><path
         d="m 5491.11,3677.36 c 1.28,34.67 49.51,61.34 117.67,49.03 68.16,-12.31 132.36,-58.22 132.36,-58.22 0,0 -67.4,-41.23 -136.29,-48.5 -68.87,-7.27 -115.02,22.87 -113.74,57.69"
         style="fill:#e7e8e5;fill-opacity:1;fill-rule:nonzero;stroke:none"
         id="path318" /><path
         d="m 5741.14,3668.17 c -35.39,-0.24 -70.73,0.95 -106.08,2.03 -35.32,1.51 -70.66,2.91 -105.94,5.76 35.4,0.27 70.73,-0.94 106.09,-2.02 35.32,-1.51 70.65,-2.92 105.93,-5.77"
         style="fill:#17282f;fill-opacity:1;fill-rule:nonzero;stroke:none"
         id="path320" /><path
         d="m 5559.63,3708.05 c 10.23,-4.58 19.71,-10.38 29.24,-16.09 9.3,-6.08 18.67,-12.06 27.25,-19.27 -10.24,4.58 -19.7,10.39 -29.24,16.1 -9.3,6.08 -18.66,12.07 -27.25,19.26"
         style="fill:#17282f;fill-opacity:1;fill-rule:nonzero;stroke:none"
         id="path322" /><path
         d="m 5652.29,3671.44 c -8.97,-7.6 -18.71,-14 -28.38,-20.49 -9.93,-6.13 -19.77,-12.35 -30.41,-17.35 8.95,7.62 18.7,14.01 28.38,20.5 9.92,6.12 19.77,12.33 30.41,17.34"
         style="fill:#17282f;fill-opacity:1;fill-rule:nonzero;stroke:none"
         id="path324" /><path
         d="m 5662.57,3690.96 c 5.28,-2.27 9.66,-5.66 14.1,-8.96 4.18,-3.64 8.43,-7.2 11.76,-11.89 -5.3,2.26 -9.66,5.66 -14.1,8.97 -4.18,3.64 -8.42,7.21 -11.76,11.88"
         style="fill:#17282f;fill-opacity:1;fill-rule:nonzero;stroke:none"
         id="path326" /><path
         d="m 5556.06,3471.64 c 21.31,-27.37 76.03,-20.8 124.13,29.05 48.09,49.84 73.32,124.63 73.32,124.63 0,0 -78.79,-5.98 -138.92,-40.36 -60.13,-34.39 -79.93,-85.82 -58.53,-113.32"
         style="fill:#e7e8e5;fill-opacity:1;fill-rule:nonzero;stroke:none"
         id="path328" /><path
         d="m 5753.51,3625.32 c -28.86,-20.5 -56.83,-42.14 -84.87,-63.68 -27.77,-21.89 -55.61,-43.69 -82.56,-66.64 28.86,20.49 56.83,42.13 84.86,63.68 27.77,21.9 55.61,43.7 82.57,66.64"
         style="fill:#17282f;fill-opacity:1;fill-rule:nonzero;stroke:none"
         id="path330" /><path
         d="m 5629.59,3486.82 c 5.62,9.7 9.91,19.95 14.31,30.15 3.99,10.37 8.09,20.69 10.84,31.57 -5.64,-9.7 -9.93,-19.95 -14.31,-30.16 -3.99,-10.37 -8.08,-20.7 -10.84,-31.56"
         style="fill:#17282f;fill-opacity:1;fill-rule:nonzero;stroke:none"
         id="path332" /><path
         d="m 5683.34,3570.7 c -11.72,0.93 -23.36,0.42 -35.01,0.03 -11.62,-0.83 -23.25,-1.55 -34.81,-3.72 11.71,-0.94 23.36,-0.42 35.01,-0.02 11.63,0.83 23.26,1.55 34.81,3.71"
         style="fill:#17282f;fill-opacity:1;fill-rule:nonzero;stroke:none"
         id="path334" /><path
         d="m 5703.1,3560.88 c 2.94,4.94 4.52,10.24 6.2,15.53 1.25,5.39 2.61,10.76 2.58,16.5 -2.97,-4.92 -4.53,-10.23 -6.2,-15.51 -1.26,-5.4 -2.61,-10.77 -2.58,-16.52"
         style="fill:#17282f;fill-opacity:1;fill-rule:nonzero;stroke:none"
         id="path336" /><path
         d="m 5746.99,3645.5 c -15.75,-5.09 -32.63,3.56 -37.72,19.3 -5.09,15.75 3.56,32.64 19.3,37.72 15.75,5.09 32.64,-3.56 37.72,-19.3 5.09,-15.75 -3.56,-32.64 -19.3,-37.72"
         style="fill:#33535f;fill-opacity:1;fill-rule:nonzero;stroke:none"
         id="path338" /><path
         d="m 5765.4,3588.47 c -15.74,-5.08 -32.64,3.56 -37.71,19.31 -5.09,15.74 3.55,32.63 19.3,37.72 15.74,5.08 32.63,-3.56 37.72,-19.31 5.08,-15.74 -3.56,-32.63 -19.31,-37.72"
         style="fill:#33535f;fill-opacity:1;fill-rule:nonzero;stroke:none"
         id="path340" /><path
         d="m 2486.93,3613.93 c -14.31,-136.88 -136.95,-236.3 -273.84,-221.98 -55.32,5.79 -104.5,29.27 -142.58,64.34 l -124.69,-18.31 62.39,107.8 c -15.14,36.83 -21.52,77.82 -17.1,120.02 14.31,136.88 136.96,236.29 273.84,221.98 136.89,-14.32 236.3,-136.96 221.98,-273.85"
         style="fill:#ffffff;fill-opacity:1;fill-rule:nonzero;stroke:none"
         id="path342" /><path
         d="m 2486.93,3613.93 c 7.58,75.12 -20.63,153.12 -75.67,204.72 -27.33,25.81 -60.42,45.36 -96.12,56.71 -35.76,11.19 -74.02,13.85 -110.85,8.31 -36.81,-5.65 -72.46,-19.37 -102.94,-40.67 -30.4,-21.35 -56.05,-49.27 -74.57,-81.34 -18.89,-31.99 -28.67,-68.66 -31.64,-105.46 -2.33,-36.92 3.7,-74.29 17.55,-108.58 l 0.89,-2.23 -1.18,-2.03 -62.76,-107.59 -4.46,6.58 124.81,17.48 1.72,0.24 1.23,-1.15 c 32.99,-30.97 74.74,-52.59 119.35,-61.47 11.14,-2.25 22.44,-3.66 33.81,-4.11 11.36,-1.21 22.72,-0.36 34.11,0.05 22.57,2.32 45.32,6.14 66.56,14.65 21.34,7.99 41.96,18.47 60.12,32.41 9.56,6.35 17.65,14.52 26.33,21.97 7.65,8.49 16.09,16.33 22.66,25.74 28.61,35.91 45.54,80.3 51.05,125.77 z m 0,0 c -5.2,-45.5 -21.84,-90.1 -50.3,-126.34 -6.54,-9.5 -14.96,-17.43 -22.59,-26.01 -8.66,-7.54 -16.74,-15.82 -26.31,-22.27 -18.22,-14.04 -38.71,-25.05 -60.12,-33.47 -21.31,-8.97 -44.24,-13.25 -67.1,-16.01 -11.53,-0.62 -23.08,-1.67 -34.63,-0.65 -11.57,0.26 -23.09,1.49 -34.49,3.58 -45.61,8.26 -88.81,29.61 -123.31,60.89 l 2.95,-0.91 -124.57,-19.12 -9.04,-1.39 4.58,7.97 62.02,108.01 -0.29,-4.27 c -30.21,71.14 -23.4,155.86 15.35,222.14 19.32,33.2 46.26,61.8 78.06,83.13 31.79,21.39 68.64,34.8 106.37,39.91 37.77,5.01 76.64,1.57 112.71,-10.41 36.02,-12.13 69.05,-32.53 96.11,-58.94 55.04,-52.31 82.7,-130.79 74.6,-205.84"
         style="fill:#17282f;fill-opacity:1;fill-rule:nonzero;stroke:none"
         id="path344" /><path
         d="m 2127.51,3582.76 -5.79,198.39 h 39.68 l -5.78,-198.39 z m -10.33,-59.11 c 0,14.88 10.33,25.63 24.38,25.63 14.89,0 24.39,-10.75 24.39,-25.63 0,-14.46 -9.5,-25.62 -24.39,-25.62 -14.46,0 -24.38,11.16 -24.38,25.62"
         style="fill:#fabb1e;fill-opacity:1;fill-rule:nonzero;stroke:none"
         id="path346" /><path
         d="m 2222.58,3582.76 -5.78,198.39 h 39.67 l -5.78,-198.39 z m -10.33,-59.11 c 0,14.88 10.33,25.63 24.39,25.63 14.87,0 24.39,-10.75 24.39,-25.63 0,-14.46 -9.52,-25.62 -24.39,-25.62 -14.47,0 -24.39,11.16 -24.39,25.62"
         style="fill:#fabb1e;fill-opacity:1;fill-rule:nonzero;stroke:none"
         id="path348" /><path
         d="m 2317.66,3582.76 -5.79,198.39 h 39.68 l -5.79,-198.39 z m -10.34,-59.11 c 0,14.88 10.34,25.63 24.39,25.63 14.88,0 24.38,-10.75 24.38,-25.63 0,-14.46 -9.5,-25.62 -24.38,-25.62 -14.47,0 -24.39,11.16 -24.39,25.62"
         style="fill:#fabb1e;fill-opacity:1;fill-rule:nonzero;stroke:none"
         id="path350" /></g></g></svg>
